<?xml version="1.0" encoding="UTF-8" standalone="no"?>
<!-- Created with Inkscape (http://www.inkscape.org/) -->

<svg
   xmlns:dc="http://purl.org/dc/elements/1.1/"
   xmlns:cc="http://creativecommons.org/ns#"
   xmlns:rdf="http://www.w3.org/1999/02/22-rdf-syntax-ns#"
   xmlns:svg="http://www.w3.org/2000/svg"
   xmlns="http://www.w3.org/2000/svg"
   xmlns:sodipodi="http://sodipodi.sourceforge.net/DTD/sodipodi-0.dtd"
   xmlns:inkscape="http://www.inkscape.org/namespaces/inkscape"
   width="158.4595mm"
   height="158.47884mm"
   viewBox="0 0 158.4595 158.47884"
   version="1.1"
   id="svg8"
   sodipodi:docname="devcord_circle.svg"
   inkscape:version="0.92.4 (5da689c313, 2019-01-14)">
  <defs
     id="defs2" />
  <sodipodi:namedview
     id="base"
     pagecolor="#000000"
     bordercolor="#666666"
     borderopacity="1.0"
     inkscape:pageopacity="0"
     inkscape:pageshadow="2"
     inkscape:zoom="0.7"
     inkscape:cx="503.24028"
     inkscape:cy="290.17361"
     inkscape:document-units="mm"
     inkscape:current-layer="layer1"
     showgrid="false"
     inkscape:window-width="1440"
     inkscape:window-height="847"
     inkscape:window-x="1358"
     inkscape:window-y="-8"
     inkscape:window-maximized="1" />
  <metadata
     id="metadata5">
    <rdf:RDF>
      <cc:Work
         rdf:about="">
        <dc:format>image/svg+xml</dc:format>
        <dc:type
           rdf:resource="http://purl.org/dc/dcmitype/StillImage" />
        <dc:title></dc:title>
      </cc:Work>
    </rdf:RDF>
  </metadata>
  <g
     inkscape:label="Layer 1"
     inkscape:groupmode="layer"
     id="layer1"
     transform="translate(-101.37065,-104.35657)">
    <g
       id="g911"
       transform="translate(-62.2738,22.183371)">
      <path
         style="fill:#fefefe;stroke-width:0.26458332"
         d="m 234.93257,240.51533 c -0.94589,-0.11485 -2.85089,-0.22319 -4.23333,-0.24075 -4.3643,-0.0554 -12.70474,-2.30532 -19.76083,-5.33058 -9.45738,-4.0548 -17.0102,-9.22767 -24.69802,-16.91549 -4.8038,-4.8038 -7.23668,-7.77052 -10.63896,-12.97343 -6.73107,-10.29345 -11.195,-22.86404 -11.7445,-33.07292 -0.28331,-5.26356 -0.28331,-15.9031 0,-21.16667 0.65924,-12.24768 6.44572,-26.49817 15.73929,-38.76145 2.58206,-3.40715 10.52192,-11.347 13.92906,-13.929059 12.26328,-9.293571 26.51378,-15.080058 38.76146,-15.739294 5.26356,-0.283313 15.9031,-0.283313 21.16666,0 12.24768,0.659236 26.49818,6.445723 38.76146,15.739294 3.40714,2.582059 11.347,10.521909 13.92906,13.929059 7.36581,9.71951 12.25746,20.04972 14.72131,31.08854 0.94316,4.22562 1.23872,8.58164 1.23872,18.25625 0,9.6746 -0.29556,14.03062 -1.23872,18.25625 -2.46385,11.03881 -7.3555,21.36902 -14.72131,31.08854 -2.58206,3.40714 -10.52192,11.347 -13.92906,13.92905 -7.63192,5.78376 -15.20511,9.82845 -23.75246,12.68572 -5.30839,1.77454 -9.42807,2.67188 -13.4215,2.92346 -5.19088,0.32702 -18.10318,0.47694 -20.10833,0.23348 z m 50.8,-23.32857 c 0,-0.27408 -2.09326,-3.55076 -10.167,-15.91486 -2.87824,-4.40772 -5.21033,-7.98865 -9.34602,-14.3508 -3.54174,-5.44845 -3.5306,-5.22697 -0.51876,-10.31083 2.25619,-3.80835 6.49128,-10.39606 14.11651,-21.95832 5.9005,-8.94702 6.60093,-10.13573 6.20552,-10.53147 -0.23372,-0.23391 -3.49913,-0.33814 -12.52047,-0.39962 -6.71236,-0.0457 -12.47592,-0.015 -12.80792,0.0683 -0.67375,0.1691 -1.22858,0.98561 -6.30266,9.27527 -1.87053,3.05594 -4.13821,6.74688 -5.03929,8.20209 -2.53014,4.08608 -3.88415,6.37093 -5.56613,9.3927 -0.8505,1.52797 -2.35451,4.05896 -3.34223,5.62441 -2.75068,4.35956 -2.74234,4.33917 -2.22138,5.43163 1.79629,3.76686 20.15449,33.21949 21.92807,35.1799 l 0.53859,0.59531 h 12.52158 c 9.24724,0 12.52159,-0.0794 12.52159,-0.30373 z m -59.81872,-38.31319 c 0.23401,-0.12523 1.32627,-1.69727 2.42726,-3.49341 1.10098,-1.79614 3.35507,-5.46836 5.00907,-8.1605 8.84387,-14.39471 15.03348,-24.94002 14.88174,-25.35422 -0.25275,-0.68991 -10.05087,-17.46183 -16.02464,-27.43015 l -5.39098,-8.99584 -13.05788,-0.0687 c -7.18184,-0.0378 -13.15624,0.0297 -13.27646,0.1499 -0.23436,0.23437 1.78576,3.56524 6.52983,10.76669 6.91317,10.49414 11.5833,17.68883 13.65356,21.03437 3.33514,5.38959 3.85286,3.67194 -5.54252,18.38855 -4.27356,6.69395 -8.62578,13.48052 -9.67161,15.08125 -1.04583,1.60072 -2.35822,3.65455 -2.91643,4.56406 -0.55821,0.9095 -1.08731,1.65446 -1.17577,1.65545 -0.0884,0.001 -0.45044,0.42703 -0.80442,0.94673 -0.42282,0.62079 -0.54509,1.0059 -0.35644,1.12267 0.42126,0.26076 25.2146,0.0613 25.71569,-0.20688 z"
         id="path917"
         inkscape:connector-curvature="0" />
      <path
         style="fill:#fdfdfd;stroke-width:0.26458332"
         d="m 235.85861,240.49571 c -15.66672,-1.43538 -30.5734,-7.44992 -42.99479,-17.34751 -2.88769,-2.30096 -9.4307,-8.8422 -11.7463,-11.74312 -4.6255,-5.79471 -9.75934,-14.71214 -12.4143,-21.56354 -2.17514,-5.61317 -4.0069,-13.09651 -4.72778,-19.31459 -0.43488,-3.75115 -0.43488,-14.50509 0,-18.25625 0.72088,-6.21807 2.55264,-13.70142 4.72778,-19.31458 2.65496,-6.8514 7.7888,-15.76883 12.4143,-21.56354 2.3103,-2.89428 8.85203,-9.43601 11.7463,-11.746302 5.79471,-4.625506 14.71214,-9.759344 21.56354,-12.414306 5.61316,-2.175137 13.09651,-4.006891 19.31458,-4.727774 3.75116,-0.434884 14.5051,-0.434884 18.25625,0 6.21808,0.720883 13.70143,2.552637 19.31459,4.727774 6.8514,2.654962 15.76883,7.7888 21.56354,12.414306 2.89427,2.310292 9.436,8.852022 11.7463,11.746302 4.62551,5.79471 9.75934,14.71214 12.4143,21.56354 2.17514,5.61316 4.0069,13.09651 4.72778,19.31458 0.43488,3.75116 0.43488,14.5051 0,18.25625 -0.72088,6.21808 -2.55264,13.70142 -4.72778,19.31459 -2.65496,6.8514 -7.78879,15.76883 -12.4143,21.56354 -2.3103,2.89427 -8.85203,9.436 -11.7463,11.7463 -5.79471,4.6255 -14.71214,9.75934 -21.56354,12.4143 -5.46975,2.11956 -13.06404,3.99791 -18.91771,4.67904 -3.42215,0.3982 -13.29428,0.54804 -16.53646,0.25099 z m 50.3753,-22.83939 c 0.50226,-0.60519 1.64065,1.26144 -12.28388,-20.14187 -2.65083,-4.07458 -5.64706,-8.65849 -6.65827,-10.18646 -2.60716,-3.93947 -3.25502,-5.11098 -3.25502,-5.88597 0,-0.85722 4.97134,-9.09784 11.26048,-18.66565 12.33924,-18.77194 11.99716,-18.18512 11.11506,-19.06773 -0.38746,-0.38768 -1.79484,-0.44251 -13.24401,-0.51597 -8.11406,-0.0521 -12.98998,0.0139 -13.30009,0.17982 -0.26929,0.14412 -1.06503,1.19315 -1.76832,2.33117 -1.9804,3.20455 -5.01538,8.15697 -8.72665,14.23996 -1.86445,3.05594 -3.71833,6.09203 -4.11973,6.74687 -0.40141,0.65485 -1.18351,2.02407 -1.738,3.04271 -0.55449,1.01865 -2.14675,3.69755 -3.53834,5.95313 -3.07197,4.9792 -3.11624,5.24736 -1.35518,8.20899 6.32171,10.63142 9.90967,16.49062 14.17263,23.14413 5.30742,8.28371 6.75697,10.43134 7.22487,10.70429 0.27421,0.15997 5.33954,0.26292 13.17915,0.26787 10.48107,0.007 12.78709,-0.0562 13.0353,-0.35529 z m -59.75472,-38.27294 c 0.23778,-0.12725 0.90958,-1.04092 1.49286,-2.03036 0.98114,-1.66431 1.81577,-3.03333 7.2264,-11.85315 3.6665,-5.97673 8.54243,-14.02227 9.3804,-15.47813 0.46067,-0.80036 1.13772,-1.93145 1.50455,-2.51354 1.61881,-2.56873 2.58061,-4.29862 2.73748,-4.92366 0.17109,-0.68169 -0.80417,-2.80458 -2.90396,-6.32113 -0.83502,-1.39843 -2.53026,-4.29808 -4.64055,-7.9375 -0.54846,-0.94589 -1.7458,-2.96995 -2.66076,-4.49792 -0.91496,-1.52797 -2.04373,-3.43297 -2.50839,-4.23333 -2.81192,-4.84348 -8.33243,-13.96245 -8.68951,-14.35365 -0.39182,-0.42925 -1.39475,-0.46302 -13.7517,-0.46302 -14.40807,0 -14.20463,-0.0203 -13.78335,1.37637 0.26051,0.86369 1.73636,3.16315 15.1179,23.55449 3.96127,6.03634 7.22261,11.4685 7.39104,12.31066 0.12275,0.61372 -0.57631,1.86575 -4.32188,7.74062 -2.45757,3.85467 -6.17342,9.68739 -8.25743,12.96161 -6.67913,10.49365 -8.55334,13.33954 -9.45333,14.35441 -0.86776,0.97852 -1.12093,1.96793 -0.62942,2.45986 0.31825,0.31855 26.1446,0.17118 26.74965,-0.15263 z"
         id="path915"
         inkscape:connector-curvature="0" />
      <path
         style="fill:#fcfcfc;stroke-width:0.26458332"
         d="m 211.05587,204.59206 c -8.58361,-21.79425 -9.41553,-24.04147 -9.01128,-24.34167 0.34067,-0.25298 3.21865,-0.33073 12.24218,-0.33073 13.38903,0 12.37378,0.17036 13.85862,-2.32549 0.8842,-1.48625 2.9759,-4.91 7.30804,-11.96201 2.93379,-4.77573 8.08009,-13.27425 9.13248,-15.08125 0.46613,-0.80036 1.21188,-2.05052 1.65721,-2.77812 2.8117,-4.59391 3.0151,-5.0127 2.87421,-5.91803 -0.0763,-0.49002 -0.64154,-1.74018 -1.25618,-2.77813 -0.61464,-1.03795 -1.49791,-2.54202 -1.96282,-3.34239 -1.24277,-2.1395 -3.47121,-5.97141 -4.61604,-7.9375 -0.55078,-0.94588 -1.74792,-2.96994 -2.66031,-4.49791 -0.9124,-1.52797 -2.04014,-3.43297 -2.5061,-4.23334 -2.1046,-3.61502 -7.55797,-12.66401 -8.17329,-13.56227 l -0.6813,-0.99457 -13.66421,0.0685 c -14.92602,0.0749 -14.42106,0.0183 -14.03156,1.57024 0.19609,0.7813 4.05113,6.79645 15.65527,24.42746 4.36706,6.63519 7.05295,11.30933 6.88444,11.98071 -0.0835,0.33261 -4.23803,7.00036 -9.23234,14.81723 -12.63935,19.78253 -12.01414,18.84286 -12.53615,18.84135 -0.3647,-10e-4 -1.91585,-3.70414 -7.39779,-17.66094 l -6.93633,-17.6596 -0.15322,-3.43958 c -0.49717,-11.16087 -0.0554,-21.10386 1.04634,-23.54792 0.26239,-0.58208 0.571,-1.81132 0.68582,-2.73164 0.11481,-0.92033 0.39779,-1.8822 0.62884,-2.1375 0.23105,-0.25531 0.42009,-0.7695 0.42009,-1.14266 0,-0.37315 0.15536,-0.73808 0.34524,-0.81095 0.18989,-0.0729 0.50604,-0.61966 0.70255,-1.2151 0.19651,-0.59545 0.57693,-1.2814 0.84538,-1.52433 0.26844,-0.24294 0.48808,-0.59383 0.48808,-0.77975 0,-0.18592 0.26789,-0.42164 0.59531,-0.52382 0.32742,-0.10218 0.65484,-0.25903 0.7276,-0.34856 0.40073,-0.49307 4.78141,-2.65268 5.75469,-2.836968 0.47294,-0.08955 0.8599,-0.255504 0.8599,-0.36878 0,-0.113276 0.74414,-0.324423 1.65364,-0.469215 1.71731,-0.273392 2.97444,-0.65149 4.25478,-1.279675 0.41197,-0.202131 1.0186,-0.367512 1.34805,-0.367512 0.32946,0 0.80467,-0.227245 1.05602,-0.50499 0.25136,-0.277745 0.83536,-0.643706 1.29778,-0.813248 0.46242,-0.169542 1.22946,-0.47485 1.70453,-0.678463 0.47506,-0.203613 1.24897,-0.534815 1.71979,-0.736004 1.86729,-0.797926 2.8555,-0.971218 5.50503,-0.965352 1.51763,0.0034 6.69403,-0.434541 11.5031,-0.973114 l 8.74377,-0.979224 37.29373,31.740475 c 24.31151,20.69138 37.32161,31.93252 37.37382,32.29217 0.0704,0.48463 -24.89627,67.37474 -25.34149,67.89446 -0.13853,0.16171 -63.98799,4.95662 -66.00286,4.95662 -0.47867,0 -1.7187,-2.97652 -10.00306,-24.01093 z m 75.41753,13.37468 c 0.72545,-0.72544 1.13563,-0.0369 -12.14228,-20.38351 -9.54319,-14.62368 -10.0298,-15.40277 -10.0298,-16.05827 0,-0.95704 4.71096,-8.6362 13.81501,-22.51935 8.6938,-13.25752 8.93916,-13.659 8.93916,-14.62687 0,-1.37296 0.10181,-1.36225 -13.78634,-1.45052 -9.1624,-0.0582 -13.07252,0.004 -13.46511,0.21402 -0.58056,0.3107 -1.62808,1.85575 -5.11271,7.54096 -1.15953,1.89177 -3.24004,5.28505 -4.62337,7.54063 -3.36457,5.48606 -4.47906,7.3522 -7.18965,12.03854 -1.26255,2.18281 -3.09059,5.26398 -4.06231,6.84704 -2.27954,3.71366 -2.28006,3.81624 -0.0383,7.57275 0.47763,0.80036 2.11188,3.5388 3.63166,6.08542 6.98262,11.70045 15.55671,25.14703 17.0818,26.78906 l 0.67579,0.7276 h 12.99446 c 9.75402,0 13.07363,-0.0792 13.31195,-0.3175 z"
         id="path913"
         inkscape:connector-curvature="0" />
    </g>
  </g>
</svg>
