<?xml version="1.0" encoding="UTF-8" standalone="no"?>
<!-- Created with Inkscape (http://www.inkscape.org/) -->

<svg
   xmlns:dc="http://purl.org/dc/elements/1.1/"
   xmlns:cc="http://creativecommons.org/ns#"
   xmlns:rdf="http://www.w3.org/1999/02/22-rdf-syntax-ns#"
   xmlns:svg="http://www.w3.org/2000/svg"
   xmlns="http://www.w3.org/2000/svg"
   xmlns:sodipodi="http://sodipodi.sourceforge.net/DTD/sodipodi-0.dtd"
   xmlns:inkscape="http://www.inkscape.org/namespaces/inkscape"
   width="169.06874mm"
   height="169.10059mm"
   viewBox="0 0 169.06874 169.10059"
   version="1.1"
   id="svg8"
   sodipodi:docname="discord_circle.svg"
   inkscape:version="0.92.4 (5da689c313, 2019-01-14)">
  <defs
     id="defs2" />
  <sodipodi:namedview
     id="base"
     pagecolor="#f0f0ed"
     bordercolor="#666666"
     borderopacity="1.0"
     inkscape:pageopacity="0"
     inkscape:pageshadow="2"
     inkscape:zoom="0.98994949"
     inkscape:cx="359.99482"
     inkscape:cy="255.37992"
     inkscape:document-units="mm"
     inkscape:current-layer="layer1"
     showgrid="false"
     inkscape:window-width="1440"
     inkscape:window-height="847"
     inkscape:window-x="1358"
     inkscape:window-y="-8"
     inkscape:window-maximized="1" />
  <metadata
     id="metadata5">
    <rdf:RDF>
      <cc:Work
         rdf:about="">
        <dc:format>image/svg+xml</dc:format>
        <dc:type
           rdf:resource="http://purl.org/dc/dcmitype/StillImage" />
        <dc:title></dc:title>
      </cc:Work>
    </rdf:RDF>
  </metadata>
  <g
     inkscape:label="Layer 1"
     inkscape:groupmode="layer"
     id="layer1"
     transform="translate(124.73414,-50.765564)">
    <path
       style="fill:#fefefe;stroke-width:0.26458332"
       d="m -49.327894,219.7965 c -13.966347,-1.95964 -23.805967,-5.28209 -34.495547,-11.6478 -9.54387,-5.68343 -18.499799,-13.89258 -25.215409,-23.11288 -7.6407,-10.4904 -12.7759,-22.91571 -15.08772,-36.50672 -0.55737,-3.27674 -0.60757,-4.36983 -0.60757,-13.22917 0,-8.85933 0.0502,-9.95242 0.60757,-13.22916 2.31182,-13.59101 7.44702,-26.016326 15.08772,-36.506726 2.67716,-3.67563 4.54136,-5.86309 8.09,-9.4928 13.040729,-13.33867 28.755519,-21.50631 47.519915,-24.69811 3.27674,-0.55737 4.369831,-0.60757 13.229166,-0.60757 8.859335,0 9.952426,0.0502 13.229166,0.60757 18.7644006,3.1918 34.4791866,11.35944 47.519918,24.69811 3.548636,3.62971 5.412845,5.81717 8.089997,9.4928 7.640698,10.4904 12.775906,22.915716 15.087722,36.506726 0.557368,3.27674 0.60757,4.36983 0.60757,13.22916 0,8.85934 -0.0502,9.95243 -0.60757,13.22917 -3.191801,18.7644 -11.359438,34.47919 -24.698105,47.51992 -3.62971,3.54863 -5.817172,5.41284 -9.4928064,8.08999 -10.44614899,7.60847 -22.8454146,12.74543 -36.3744336,15.06976 -3.046928,0.52347 -4.481629,0.59711 -12.567708,0.64502 -5.020469,0.0297 -9.485312,0.004 -9.921875,-0.0573 z m -13.329107,-44.68355 c 1.041913,-1.38617 1.847823,-2.55153 1.790914,-2.5897 -0.05691,-0.0382 -0.817848,-0.35172 -1.690973,-0.6968 -2.373461,-0.93803 -6.560871,-3.06791 -8.974381,-4.56471 -4.22705,-2.62153 -9.48659,-7.11351 -9.36068,-7.99464 0.14262,-0.99812 1.13925,-0.79641 3.60691,0.73002 7.82442,4.83998 16.44313,7.71368 27.163567,9.05703 4.790019,0.60022 15.147015,0.59579 20.108333,-0.009 10.548403,-1.28502 18.859815,-4.08353 27.2740426,-9.18337 2.24470401,-1.3605 3.02074801,-1.45168 3.02074801,-0.3549 0,1.07504 -4.83155101,5.17308 -9.57719901,8.12322 -2.2844496,1.42013 -7.2891726,3.88332 -9.0097796,4.43438 -0.545703,0.17477 -0.992187,0.43462 -0.992187,0.57744 0,0.20558 2.614168,3.8569 3.441102,4.80633 0.101679,0.11674 1.400072,0.0875 2.885321,-0.0649 7.9972946,-0.82068 16.2994916,-3.76439 22.7777426,-8.0763 2.8139054,-1.87293 6.6594644,-5.14455 7.7913234,-6.62849 l 0.745532,-0.97745 -0.448617,-4.90592 c -1.639459,-17.92818 -6.076267,-34.963 -12.3855344,-47.55297 -2.615092,-5.21834 -3.019835,-5.73574 -6.02960299,-7.70776 C -7.0882484,97.231164 -15.483609,93.992804 -22.38821,93.099364 c -1.332018,-0.17237 -1.382503,-0.15461 -1.787488,0.62854 -0.502989,0.97268 -0.432133,1.02506 2.36447,1.7482 6.086324,1.57377 13.3937236,5.280696 18.4537006,9.361276 1.558737,1.25704 1.826095,1.83525 1.119682,2.42152 -0.333806,0.27704 -0.842791,0.12726 -2.976563,-0.87593 -13.2535156,-6.23109 -23.7723486,-8.490836 -37.4523596,-8.045856 -12.468225,0.40557 -19.857571,2.259956 -32.952583,8.269636 -2.10932,0.96802 -2.23122,0.9932 -2.56943,0.53066 -0.53956,-0.73789 -0.10618,-1.28131 2.6169,-3.2814 5.5276,-4.059986 11.51956,-6.998626 17.446592,-8.556336 1.273307,-0.33464 2.315104,-0.74517 2.315104,-0.91228 0,-0.16711 -0.20836,-0.56093 -0.463021,-0.87517 -0.442188,-0.54562 -0.552302,-0.55808 -2.447396,-0.27679 -2.754498,0.40884 -7.378999,1.65203 -10.319349,2.77411 -3.48333,1.32928 -9.27977,4.367356 -11.74662,6.156726 -1.96867,1.428 -2.18466,1.68714 -3.7228,4.46649 -7.08183,12.79664 -12.81382,34.51412 -13.78134,52.21509 l -0.18077,3.30729 2.2145,2.12044 c 2.65041,2.53784 4.73148,4.16149 7.68809,5.99824 6.58695,4.09205 15.39346,6.84531 23.42717,7.32425 0.45421,0.0271 1.02717,-0.54597 2.48472,-2.48512 z m 2.884479,-23.56842 c -2.947516,-0.79207 -5.140739,-2.69034 -6.568049,-5.68475 -1.5669,-3.28725 -1.54841,-7.09851 0.0506,-10.42756 1.17624,-2.4489 2.40724,-3.81101 4.440411,-4.91335 1.572249,-0.85244 1.826194,-0.90748 4.187298,-0.90748 2.360721,0 2.615221,0.0551 4.185955,0.90676 2.923508,1.58509 4.722868,4.2133 5.50273,8.03749 0.342881,1.68138 0.361069,2.34558 0.105674,3.85972 -0.807241,4.78587 -3.961341,8.3663 -8.153736,9.25583 -1.725636,0.36614 -1.944526,0.35875 -3.750876,-0.12666 z m 35.050878,0.0513 c -2.938878,-0.72822 -5.333738,-2.76791 -6.739197,-5.73975 -1.16341,-2.46003 -1.47365,-4.8068 -0.965113,-7.30049 0.779862,-3.82419 2.579222,-6.4524 5.50273,-8.03749 1.570734,-0.85163 1.825234,-0.90676 4.185955,-0.90676 2.361104,0 2.615049,0.055 4.187298,0.90748 2.033169,1.10234 3.264167,2.46445 4.440415,4.91335 2.099513,4.37111 1.411046,9.57689 -1.739972,13.15663 -1.307605,1.48552 -2.908501,2.45224 -4.935026,2.98009 -1.785956,0.46518 -2.158186,0.46773 -3.93709,0.0269 z"
       id="path4003"
       inkscape:connector-curvature="0" />
    <path
       style="fill:#000000;stroke-width:0.26458332"
       d=""
       id="path4001"
       inkscape:connector-curvature="0" />
  </g>
</svg>
