<?xml version="1.0" encoding="UTF-8" standalone="no"?>
<!-- Created with Inkscape (http://www.inkscape.org/) -->

<svg
   xmlns:dc="http://purl.org/dc/elements/1.1/"
   xmlns:cc="http://creativecommons.org/ns#"
   xmlns:rdf="http://www.w3.org/1999/02/22-rdf-syntax-ns#"
   xmlns:svg="http://www.w3.org/2000/svg"
   xmlns="http://www.w3.org/2000/svg"
   xmlns:sodipodi="http://sodipodi.sourceforge.net/DTD/sodipodi-0.dtd"
   xmlns:inkscape="http://www.inkscape.org/namespaces/inkscape"
   width="687.91669mm"
   height="687.91669mm"
   viewBox="0 0 687.91668 687.91668"
   version="1.1"
   id="svg8"
   inkscape:version="0.92.4 (5da689c313, 2019-01-14)"
   sodipodi:docname="gamejolt.svg">
  <defs
     id="defs2" />
  <sodipodi:namedview
     id="base"
     pagecolor="#ffffff"
     bordercolor="#666666"
     borderopacity="1.0"
     inkscape:pageopacity="0.0"
     inkscape:pageshadow="2"
     inkscape:zoom="0.35"
     inkscape:cx="1143.5575"
     inkscape:cy="1787.557"
     inkscape:document-units="mm"
     inkscape:current-layer="layer1"
     showgrid="false"
     inkscape:window-width="1440"
     inkscape:window-height="847"
     inkscape:window-x="1358"
     inkscape:window-y="-8"
     inkscape:window-maximized="1" />
  <metadata
     id="metadata5">
    <rdf:RDF>
      <cc:Work
         rdf:about="">
        <dc:format>image/svg+xml</dc:format>
        <dc:type
           rdf:resource="http://purl.org/dc/dcmitype/StillImage" />
        <dc:title></dc:title>
      </cc:Work>
    </rdf:RDF>
  </metadata>
  <g
     inkscape:label="Layer 1"
     inkscape:groupmode="layer"
     id="layer1"
     transform="translate(222.72993,149.49869)">
    <g
       transform="translate(-11.134088,9.180481)"
       id="g10035">
      <path
         style="fill:#2f7f6f;fill-opacity:1"
         d="M 0,0.5 V 0 H 0.5 1 1.5 2 2.5 3 3.5 4 4.5 5 5.5 6 6.5 7 7.5 8 8.5 9 9.5 10 10.5 11 11.5 12 12.5 13 13.5 14 14.5 15 15.5 16 16.5 17 17.5 18 18.5 19 19.5 20 20.5 21 21.5 22 22.5 23 23.5 24 24.5 25 25.5 26 V 0.5 1 1.5 2 2.5 3 3.5 4 4.5 5 5.5 6 6.5 7 7.5 8 8.5 9 9.5 10 10.5 11 11.5 12 12.5 13 13.5 14 14.5 15 15.5 16 16.5 17 17.5 18 18.5 19 19.5 20 20.5 21 21.5 22 22.5 23 23.5 24 24.5 25 25.5 26 H 25.5 25 24.5 24 23.5 23 22.5 22 21.5 21 20.5 20 19.5 19 18.5 18 17.5 17 16.5 16 15.5 15 14.5 14 13.5 13 12.5 12 11.5 11 10.5 10 9.5 9 8.5 8 7.5 7 6.5 6 5.5 5 4.5 4 3.5 3 2.5 2 1.5 1 0.5 0 V 25.5 25 24.5 24 23.5 23 22.5 22 21.5 21 20.5 20 19.5 19 18.5 18 17.5 17 16.5 16 15.5 15 14.5 14 13.5 13 12.5 12 11.5 11 10.5 10 9.5 9 8.5 8 7.5 7 6.5 6 5.5 5 4.5 4 3.5 3 2.5 2 1.5 1 0.5 M 9.125,20.375 Q 9.25,20.75 9.5,20.75 q 0.25,0 0.5,-0.25 0.25,-0.25 0.5,-0.5 0.25,-0.25 0.5,-0.5 0.25,-0.25 0.5,-0.5 0.25,-0.25 0.5,-0.5 0.25,-0.25 0.5,-0.5 0.25,-0.25 0.5,-0.5 0.25,-0.25 0.5,-0.5 0.25,-0.25 0.5,-0.5 0.25,-0.25 0.5,-0.5 0.25,-0.25 0.5,-0.5 0.25,-0.25 0.5,-0.5 0.25,-0.25 0.5,-0.5 0.25,-0.25 0.5,-0.5 0.25,-0.25 0.5,-0.5 0.25,-0.25 0.5,-0.5 0.25,-0.25 0.5,-0.5 0.25,-0.25 0.5,-0.5 0.25,-0.25 0.5,-0.5 0.25,-0.25 0.5,-0.5 0.25,-0.25 0.25,-0.5 0,-0.25 -0.375,-0.375 Q 19,10 18.5,10 18,10 17.625,9.875 17.25,9.75 17.25,9.5 17.25,9.25 17.5,9 17.75,8.75 18,8.5 18.25,8.25 18.5,8 18.75,7.75 19,7.5 19.25,7.25 19.5,7 19.75,6.75 20,6.5 20.25,6.25 20.5,6 20.75,5.75 20.75,5.5 20.75,5.25 20.375,5.125 20,5 19.5,5 19,5 18.5,5 18,5 17.5,5 17,5 16.5,5 16,5 15.5,5 15,5 14.5,5 14,5 13.5,5 13,5 12.5,5 12,5 11.5,5 11,5 10.5,5 10,5 9.625,5.125 9.25,5.25 9.125,5.625 9,6 8.875,6.375 8.75,6.75 8.5,7 8.25,7.25 8.125,7.625 8,8 7.875,8.375 7.75,8.75 7.5,9 7.25,9.25 7.125,9.625 7,10 6.875,10.375 6.75,10.75 6.5,11 6.25,11.25 6.125,11.625 6,12 5.875,12.375 5.75,12.75 5.5,13 5.25,13.25 5.125,13.625 5,14 5.125,14.375 5.25,14.75 5.625,14.875 6,15 6.5,15 q 0.5,0 1,0 0.5,0 1,0 0.5,0 1,0 0.5,0 0.875,0.125 0.375,0.125 0.5,0.5 0.125,0.375 0,0.75 Q 10.75,16.75 10.5,17 10.25,17.25 10.125,17.625 10,18 9.875,18.375 9.75,18.75 9.5,19 9.25,19.25 9.125,19.625 9,20 9.125,20.375"
         id="path10017"
         inkscape:connector-curvature="0" />
      <path
         style="fill:#000000;fill-opacity:0"
         d="M 9.125,5.625 Q 9.25,5.25 9.625,5.125 10,5 10.5,5 q 0.5,0 1,0 0.5,0 1,0 0.5,0 1,0 0.5,0 1,0 0.5,0 1,0 0.5,0 1,0 0.5,0 1,0 0.5,0 1,0 0.5,0 1,0 Q 20,5 20.375,5.125 20.75,5.25 20.75,5.5 20.75,5.75 20.5,6 20.25,6.25 20,6.5 19.75,6.75 19.5,7 19.25,7.25 19,7.5 18.75,7.75 18.5,8 18.25,8.25 18,8.5 17.75,8.75 17.5,9 q -0.25,0.25 -0.25,0.5 0,0.25 0.375,0.375 Q 18,10 18.5,10 q 0.5,0 0.875,0.125 0.375,0.125 0.375,0.375 0,0.25 -0.25,0.5 -0.25,0.25 -0.5,0.5 -0.25,0.25 -0.5,0.5 -0.25,0.25 -0.5,0.5 -0.25,0.25 -0.5,0.5 -0.25,0.25 -0.5,0.5 -0.25,0.25 -0.5,0.5 -0.25,0.25 -0.5,0.5 -0.25,0.25 -0.5,0.5 -0.25,0.25 -0.5,0.5 -0.25,0.25 -0.5,0.5 -0.25,0.25 -0.5,0.5 -0.25,0.25 -0.5,0.5 -0.25,0.25 -0.5,0.5 -0.25,0.25 -0.5,0.5 -0.25,0.25 -0.5,0.5 -0.25,0.25 -0.5,0.5 -0.25,0.25 -0.5,0.5 -0.25,0.25 -0.5,0.5 -0.25,0.25 -0.5,0.5 -0.25,0.25 -0.5,0.25 -0.25,0 -0.375,-0.375 Q 9,20 9.125,19.625 9.25,19.25 9.5,19 9.75,18.75 9.875,18.375 10,18 10.125,17.625 10.25,17.25 10.5,17 10.75,16.75 10.875,16.375 11,16 10.875,15.625 10.75,15.25 10.375,15.125 10,15 9.5,15 9,15 8.5,15 8,15 7.5,15 7,15 6.5,15 6,15 5.625,14.875 5.25,14.75 5.125,14.375 5,14 5.125,13.625 5.25,13.25 5.5,13 5.75,12.75 5.875,12.375 6,12 6.125,11.625 6.25,11.25 6.5,11 6.75,10.75 6.875,10.375 7,10 7.125,9.625 7.25,9.25 7.5,9 7.75,8.75 7.875,8.375 8,8 8.125,7.625 8.25,7.25 8.5,7 8.75,6.75 8.875,6.375 9,6 9.125,5.625 m 4.25,10.25 L 13,16 13.375,15.875 q 0.375,-0.125 0,0 M 15.25,12.5 q 0,0.25 0.25,0.25 0.25,0 0.25,-0.25 0,-0.25 -0.25,-0.25 -0.25,0 -0.25,0.25 m -2.25,0 q 0.25,0.25 0.5,0.25 0.25,0 0.25,-0.25 0,-0.25 -0.25,-0.5 -0.25,-0.25 -0.25,-0.5 0,-0.25 0.25,-0.5 Q 13.75,10.75 14,10.5 14.25,10.25 14.5,10 14.75,9.75 15,9.5 15.25,9.25 15.5,9 15.75,8.75 16,8.5 16.25,8.25 16.5,8 16.75,7.75 16.75,7.5 16.75,7.25 16.375,7.125 16,7 15.5,7 15,7 14.5,7 14,7 13.5,7 13,7 12.5,7 12,7 11.5,7 11,7 10.625,7.125 10.25,7.25 10.125,7.625 10,8 9.875,8.375 9.75,8.75 9.5,9 9.25,9.25 9.125,9.625 9,10 9,10.5 V 11 L 8.625,11.125 Q 8.25,11.25 8.25,11.5 q 0,0.25 0.375,0.375 L 9,12 9.125,12.375 Q 9.25,12.75 9.5,12.75 q 0.25,0 0.375,-0.375 L 10,12 h 0.5 0.5 l 0.125,0.375 q 0.125,0.375 0.375,0.375 0.25,0 0.375,-0.375 L 12,12 12.375,12.125 Q 12.75,12.25 13,12.5"
         id="path10019"
         inkscape:connector-curvature="0" />
      <path
         style="fill:#2f7f6f;fill-opacity:1"
         d="M 10.125,7.625 Q 10.25,7.25 10.625,7.125 11,7 11.5,7 q 0.5,0 1,0 0.5,0 1,0 0.5,0 1,0 0.5,0 1,0 Q 16,7 16.375,7.125 16.75,7.25 16.75,7.5 16.75,7.75 16.5,8 16.25,8.25 16,8.5 15.75,8.75 15.5,9 15.25,9.25 15,9.5 14.75,9.75 14.5,10 q -0.25,0.25 -0.5,0.5 -0.25,0.25 -0.5,0.5 -0.25,0.25 -0.25,0.5 0,0.25 0.25,0.5 0.25,0.25 0.25,0.5 0,0.25 -0.25,0.25 -0.25,0 -0.5,-0.25 -0.25,-0.25 -0.625,-0.375 L 12,12 11.875,11.625 Q 11.75,11.25 11.5,11.25 q -0.25,0 -0.375,0.375 L 11,12 H 10.5 10 L 9.875,11.625 Q 9.75,11.25 9.375,11.125 L 9,11 V 10.5 Q 9,10 9.125,9.625 9.25,9.25 9.5,9 9.75,8.75 9.875,8.375 10,8 10.125,7.625"
         id="path10021"
         inkscape:connector-curvature="0" />
      <path
         style="fill:#2f7f6f;fill-opacity:1"
         d="m 8.25,11.5 q 0,-0.25 0.375,-0.375 L 9,11 V 11.5 12 L 8.625,11.875 Q 8.25,11.75 8.25,11.5"
         id="path10023"
         inkscape:connector-curvature="0" />
      <path
         style="fill:#000000;fill-opacity:0"
         d="M 9,11.5 V 11 l 0.375,0.125 q 0.375,0.125 0.5,0.5 L 10,12 H 9.5 9 v -0.5"
         id="path10025"
         inkscape:connector-curvature="0" />
      <path
         style="fill:#000000;fill-opacity:0"
         d="M 11.125,11.625 Q 11.25,11.25 11.5,11.25 q 0.25,0 0.375,0.375 L 12,12 H 11.5 11 l 0.125,-0.375"
         id="path10027"
         inkscape:connector-curvature="0" />
      <path
         style="fill:#2f7f6f;fill-opacity:1"
         d="M 9.125,12.375 9,12 H 9.5 10 L 9.875,12.375 Q 9.75,12.75 9.5,12.75 q -0.25,0 -0.375,-0.375"
         id="path10029"
         inkscape:connector-curvature="0" />
      <path
         style="fill:#2f7f6f;fill-opacity:1"
         d="M 11.125,12.375 11,12 h 0.5 0.5 l -0.125,0.375 Q 11.75,12.75 11.5,12.75 q -0.25,0 -0.375,-0.375"
         id="path10031"
         inkscape:connector-curvature="0" />
      <path
         style="fill:#2f7f6f;fill-opacity:1"
         d="m 15.25,12.5 q 0,-0.25 0.25,-0.25 0.25,0 0.25,0.25 0,0.25 -0.25,0.25 -0.25,0 -0.25,-0.25"
         id="path10033"
         inkscape:connector-curvature="0" />
    </g>
    <path
       style="fill:#2e7e6e;stroke-width:0.26458335"
       d="M -222.72993,194.45965 V -149.49869 H 121.22841 465.18676 V 194.45965 538.418 H 121.22841 -222.72993 Z M 42.06508,406.338 c 0.238257,-0.23826 0.3175,-3.53955 0.3175,-13.22917 v -12.91167 h 12.911667 c 9.689624,0 12.99091,-0.0792 13.229167,-0.3175 0.238258,-0.23826 0.3175,-3.53954 0.3175,-13.22917 v -12.91166 h 12.911667 c 9.68962,0 12.99091,-0.0793 13.22917,-0.3175 0.23825,-0.23826 0.3175,-3.53955 0.3175,-13.22917 v -12.91167 h 12.911659 c 9.68963,0 12.99091,-0.0792 13.22917,-0.3175 0.23826,-0.23825 0.3175,-3.53954 0.3175,-13.22916 v -12.91167 h 12.91167 c 9.68962,0 12.99091,-0.0792 13.22917,-0.3175 0.23825,-0.23826 0.3175,-3.53954 0.3175,-13.22917 v -12.91167 h 12.91166 c 9.68963,0 12.99091,-0.0792 13.22917,-0.3175 0.23826,-0.23825 0.3175,-3.53954 0.3175,-13.22916 v -12.91167 h 12.91167 c 9.68962,0 12.99091,-0.0792 13.22916,-0.3175 0.23826,-0.23826 0.3175,-3.53954 0.3175,-13.22917 v -12.91166 h 12.91167 c 9.68963,0 12.99091,-0.0793 13.22917,-0.3175 0.23826,-0.23826 0.3175,-3.53955 0.3175,-13.22917 v -12.91167 h 12.91167 c 9.68962,0 12.99091,-0.0792 13.22916,-0.3175 0.23826,-0.23826 0.3175,-3.53954 0.3175,-13.22917 v -12.91166 h 12.91167 c 9.68962,0 12.99091,-0.0793 13.22917,-0.3175 0.23825,-0.23826 0.3175,-3.53955 0.3175,-13.22917 v -12.91167 h 12.91166 c 9.68963,0 12.99091,-0.0792 13.22917,-0.3175 0.45757,-0.45757 0.45757,-26.4241 0,-26.88167 -0.2441,-0.2441 -9.41917,-0.3175 -39.6875,-0.3175 h -39.37 v -12.7 -12.699997 h 12.91167 c 9.68962,0 12.99091,-0.07923 13.22916,-0.3175 0.23826,-0.238271 0.3175,-3.539538 0.3175,-13.229167 V 62.697149 h 12.91167 c 9.68962,0 12.99091,-0.07923 13.22917,-0.3175 0.23825,-0.238271 0.3175,-3.539538 0.3175,-13.229168 V 36.238814 h 12.91166 c 9.68963,0 12.99091,-0.07923 13.22917,-0.3175 0.23826,-0.23827 0.3175,-3.539537 0.3175,-13.229167 V 9.78048 h 12.91167 c 9.68962,0 12.99091,-0.07923 13.22917,-0.3175 0.45757,-0.457557 0.45757,-26.42411 0,-26.881668 -0.46303,-0.46302 -317.460327,-0.46302 -317.923348,0 -0.24266,0.24266 -0.3175,6.479353 -0.3175,26.458335 V 35.180481 H 1.954245 c -9.689629,0 -12.990896,0.07923 -13.229167,0.3175 -0.24266,0.24266 -0.3175,6.479352 -0.3175,26.458334 v 26.140834 h -12.911667 c -9.689629,0 -12.990897,0.07923 -13.229167,0.3175 -0.24266,0.24266 -0.3175,6.479353 -0.3175,26.458331 v 26.14084 h -12.911667 c -9.68963,0 -12.990897,0.0792 -13.229167,0.3175 -0.24266,0.24265 -0.3175,6.47935 -0.3175,26.45833 v 26.14084 h -12.911667 c -9.68963,0 -12.990897,0.0792 -13.229168,0.3175 -0.460549,0.46056 -0.460549,52.87944 0,53.34 0.245529,0.24553 18.238611,0.3175 79.375003,0.3175 h 79.057503 v 25.92917 25.92917 H 54.870914 c -9.689624,0 -12.99091,0.0792 -13.229167,0.3175 -0.24266,0.24264 -0.3175,6.47935 -0.3175,26.45833 v 26.14083 H 28.41258 c -9.68963,0 -12.990897,0.0793 -13.229168,0.3175 -0.460549,0.46056 -0.460549,52.87945 0,53.34001 0.238411,0.23841 3.586576,0.3175 13.440834,0.3175 9.854259,0 13.202423,-0.0791 13.440834,-0.3175 z M 15.924246,181.23049 v -12.7 h 12.7 12.700001 v 12.7 12.7 h -12.700001 -12.7 z m 52.916668,0 v -12.7 h 12.699997 l 14.169982,-0.13363 v 12.7 12.7 l -14.169982,0.13363 H 68.840914 Z m 51.971726,0.0945 v -12.7 l 13.64494,-0.0945 h 12.7 v 12.7 12.7 h -12.7 l -13.64494,0.0945 z m 53.86161,-0.0945 v -12.7 h 12.7 12.7 v 12.7 12.7 h -12.7 -12.7 z m -185.208338,-26.45834 -0.110707,-13.50181 12.9443418,-0.26727 13.6246992,0.0108 0.144379,13.6247 -0.144379,13.89197 -13.8919688,0.0107 -12.5663652,0.13363 z m 52.916668,-0.21166 c 0,-9.68963 -0.07924,-12.99092 -0.3175,-13.22917 -0.238271,-0.23826 -3.539538,-0.3175 -13.229167,-0.3175 H 15.924246 V 115.08465 89.155483 h 12.911667 c 9.689629,0 12.990896,-0.07923 13.229167,-0.3175 0.242649,-0.24266 0.3175,-6.479353 0.3175,-26.458334 V 36.238814 h 92.075 92.07501 v 12.700001 12.7 h -12.91167 c -9.68963,0 -12.99091,0.07923 -13.22917,0.3175 -0.23826,0.238271 -0.3175,3.539538 -0.3175,13.229167 v 12.911667 h -12.91167 c -9.68962,0 -12.99091,0.07923 -13.22916,0.3175 -0.23826,0.238271 -0.3175,3.539538 -0.3175,13.229171 v 12.91166 h -12.91167 c -9.68962,0 -12.99091,0.0792 -13.22917,0.3175 -0.23825,0.23826 -0.3175,3.53955 -0.3175,13.22917 v 12.91167 h -12.91166 c -9.68963,0 -12.99091,0.0792 -13.22917,0.3175 -0.23826,0.23825 -0.3175,3.53954 -0.3175,13.22917 l 0.13363,14.11437 h -12.7 -12.699994 l -0.133635,-14.11437 c -0.09174,-9.6892 -0.0793,-12.99092 -0.3175,-13.22917 -0.45757,-0.45757 -26.4241,-0.45757 -26.88167,0 -0.238257,0.23825 -0.3175,3.53954 -0.3175,13.22917 v 12.91166 h -12.700001 -12.7 z"
       id="path10092"
       inkscape:connector-curvature="0"
       sodipodi:nodetypes="ccccccccccscscscscscscscscscscscscscscscscscscscscsscccscscscscssscscccscscscssscscscsccscccscscsccsccccccccccccccccccccccccccccccccccccccccccccccscscccscscccccscscscscscscscscccsccscccs" />
  </g>
</svg>
