<?xml version="1.0" encoding="UTF-8" standalone="no"?>
<!-- Created with Inkscape (http://www.inkscape.org/) -->

<svg
   xmlns:dc="http://purl.org/dc/elements/1.1/"
   xmlns:cc="http://creativecommons.org/ns#"
   xmlns:rdf="http://www.w3.org/1999/02/22-rdf-syntax-ns#"
   xmlns:svg="http://www.w3.org/2000/svg"
   xmlns="http://www.w3.org/2000/svg"
   xmlns:sodipodi="http://sodipodi.sourceforge.net/DTD/sodipodi-0.dtd"
   xmlns:inkscape="http://www.inkscape.org/namespaces/inkscape"
   width="169.06876mm"
   height="169.10062mm"
   viewBox="0 0 169.06876 169.10062"
   version="1.1"
   id="svg8"
   inkscape:version="0.92.4 (5da689c313, 2019-01-14)"
   sodipodi:docname="gamejolt_circle.svg">
  <defs
     id="defs2" />
  <sodipodi:namedview
     id="base"
     pagecolor="#ecece4"
     bordercolor="#666666"
     borderopacity="1.0"
     inkscape:pageopacity="0"
     inkscape:pageshadow="2"
     inkscape:zoom="0.98994949"
     inkscape:cx="271.49085"
     inkscape:cy="508.36629"
     inkscape:document-units="mm"
     inkscape:current-layer="layer1"
     showgrid="false"
     inkscape:window-width="1440"
     inkscape:window-height="847"
     inkscape:window-x="1358"
     inkscape:window-y="-8"
     inkscape:window-maximized="1" />
  <metadata
     id="metadata5">
    <rdf:RDF>
      <cc:Work
         rdf:about="">
        <dc:format>image/svg+xml</dc:format>
        <dc:type
           rdf:resource="http://purl.org/dc/dcmitype/StillImage" />
        <dc:title></dc:title>
      </cc:Work>
    </rdf:RDF>
  </metadata>
  <g
     inkscape:label="Layer 1"
     inkscape:groupmode="layer"
     id="layer1"
     transform="translate(-67.816896,-86.757469)">
    <path
       style="fill:#fefefe;stroke-width:0.26458332"
       d="m 143.22315,255.7884 c -13.96635,-1.95963 -23.80597,-5.28208 -34.49555,-11.64779 -9.543877,-5.68343 -18.4998,-13.89258 -25.215412,-23.11288 -7.6407,-10.4904 -12.775907,-22.91572 -15.087721,-36.50672 -0.557369,-3.27674 -0.607571,-4.36984 -0.607571,-13.22917 0,-8.85933 0.0502,-9.95243 0.607571,-13.22917 2.311814,-13.591 7.447021,-26.01632 15.087721,-36.50672 2.677152,-3.67563 4.54136,-5.8631 8.089996,-9.49281 13.040736,-13.338662 28.755526,-21.506298 47.519926,-24.6981 3.27674,-0.557369 4.36983,-0.607571 13.22916,-0.607571 8.85934,0 9.95243,0.0502 13.22917,0.607571 18.7644,3.191802 34.47919,11.359438 47.51992,24.6981 3.54863,3.62971 5.41284,5.81718 8.09,9.49281 7.64069,10.4904 12.7759,22.91572 15.08772,36.50672 0.55737,3.27674 0.60757,4.36984 0.60757,13.22917 0,8.85933 -0.0502,9.95243 -0.60757,13.22917 -3.1918,18.7644 -11.35944,34.47918 -24.69811,47.51991 -3.62971,3.54864 -5.81717,5.41285 -9.4928,8.09 -10.44615,7.60847 -22.84542,12.74542 -36.37444,15.06976 -3.04693,0.52347 -4.48163,0.59711 -12.56771,0.64501 -5.02046,0.0298 -9.48531,0.004 -9.92187,-0.0573 z m -10.65762,-36.14396 0.0743,-3.24114 3.23282,-0.0742 3.23281,-0.0742 0.0745,-3.10078 0.0745,-3.10077 3.10885,-0.0745 3.10886,-0.0745 v -3.1666 -3.1666 h 3.29915 3.29914 l 0.0743,-3.24115 0.0743,-3.24115 3.10886,-0.0745 3.10885,-0.0745 v -3.1666 -3.16661 h 3.29915 3.29915 l 0.0743,-3.24114 0.0743,-3.24115 3.10885,-0.0745 3.10885,-0.0745 v -3.16661 -3.1666 h 3.29915 3.29915 l 0.0743,-3.24115 0.0743,-3.24114 3.10885,-0.0746 3.10886,-0.0745 v -3.1666 -3.1666 h 3.30729 3.30729 v -3.175 -3.175 h 3.175 3.175 v -3.04271 -3.04271 h -9.65729 -9.65729 v -3.43958 -3.43959 h 3.175 3.175 v -3.30729 -3.30729 h 3.30729 3.30729 v -3.30729 -3.30729 h 3.175 3.175 v -3.175 -3.175 h 3.30729 3.30729 v -3.04271 -3.04271 h -38.62916 -38.62917 v 6.4823 6.48228 h -3.30729 -3.30729 v 6.61459 6.61458 h -3.1703 -3.17029 l -0.0708,6.41615 -0.0709,6.41614 -3.10886,0.0746 -3.10885,0.0745 v 6.3416 6.3416 h -3.30729 -3.3073 v 6.21599 6.216 l 19.38073,0.0679 19.38073,0.0679 0.0707,6.68073 0.0707,6.68073 h -3.31183 -3.31184 v 6.48229 6.48229 h -3.175 -3.175 v 6.21771 6.21771 h 2.90227 2.90228 z m -6.40801,-51.25487 v -3.16686 l -3.24114,-0.0743 -3.24115,-0.0743 v -3.30729 -3.30729 l 3.24115,-0.0743 3.24114,-0.0743 v -6.47415 -6.47415 h 3.17038 3.17038 l 0.0708,-6.54843 0.0708,-6.54844 h 22.88645 22.88646 l 0.0738,3.50573 0.0738,3.50573 h -3.30683 -3.30682 l -0.0743,3.24114 -0.0743,3.24115 -3.10886,0.0745 -3.10885,0.0745 v 3.16661 3.1666 h -3.29915 -3.29915 l -0.0743,3.24115 -0.0743,3.24114 -3.10886,0.0746 -3.10885,0.0745 v 2.90202 2.90202 h 3.175 3.175 v 3.43958 3.43958 h -3.43959 -3.43958 v -3.175 -3.175 h -3.04271 -3.04271 v 3.175 3.175 h -3.43958 -3.43958 v -3.175 -3.175 h -3.04271 -3.04271 v 3.175 3.175 h -3.43958 -3.43959 z m 6.35,-6.60623 v -2.8939 l -2.91095,-0.0827 -2.91096,-0.0827 5.3e-4,2.97656 5.3e-4,2.97657 h 2.91042 2.91041 v -2.89392 z m 12.96459,0 v -2.8939 l -2.91096,-0.0827 -2.91096,-0.0827 5.3e-4,2.97656 5.3e-4,2.97657 h 2.91042 2.91042 v -2.89392 z m 19.57916,6.3335 v -3.43958 h 3.43959 3.43958 v 3.43958 3.43958 h -3.43958 -3.43959 z"
       id="path21"
       inkscape:connector-curvature="0" />
  </g>
</svg>
