<?xml version="1.0" encoding="UTF-8" standalone="no"?>
<!-- Created with Inkscape (http://www.inkscape.org/) -->

<svg
   xmlns:dc="http://purl.org/dc/elements/1.1/"
   xmlns:cc="http://creativecommons.org/ns#"
   xmlns:rdf="http://www.w3.org/1999/02/22-rdf-syntax-ns#"
   xmlns:svg="http://www.w3.org/2000/svg"
   xmlns="http://www.w3.org/2000/svg"
   xmlns:sodipodi="http://sodipodi.sourceforge.net/DTD/sodipodi-0.dtd"
   xmlns:inkscape="http://www.inkscape.org/namespaces/inkscape"
   width="169.06874mm"
   height="169.10062mm"
   viewBox="0 0 169.06874 169.10062"
   version="1.1"
   id="svg8"
   sodipodi:docname="medium_circle.svg"
   inkscape:version="0.92.4 (5da689c313, 2019-01-14)">
  <defs
     id="defs2" />
  <sodipodi:namedview
     id="base"
     pagecolor="#f0f0ed"
     bordercolor="#666666"
     borderopacity="1.0"
     inkscape:pageopacity="0"
     inkscape:pageshadow="2"
     inkscape:zoom="0.98994949"
     inkscape:cx="223.74734"
     inkscape:cy="337.28206"
     inkscape:document-units="mm"
     inkscape:current-layer="layer1"
     showgrid="false"
     inkscape:window-width="1440"
     inkscape:window-height="847"
     inkscape:window-x="1358"
     inkscape:window-y="-8"
     inkscape:window-maximized="1" />
  <metadata
     id="metadata5">
    <rdf:RDF>
      <cc:Work
         rdf:about="">
        <dc:format>image/svg+xml</dc:format>
        <dc:type
           rdf:resource="http://purl.org/dc/dcmitype/StillImage" />
        <dc:title></dc:title>
      </cc:Work>
    </rdf:RDF>
  </metadata>
  <g
     inkscape:label="Layer 1"
     inkscape:groupmode="layer"
     id="layer1"
     transform="translate(94.231342,-41.711423)">
    <path
       style="fill:#000000;stroke-width:0.26458332"
       d=""
       id="path4001"
       inkscape:connector-curvature="0" />
    <path
       style="fill:#fefefe;stroke-width:0.26458332"
       d="m -18.825094,210.74236 c -13.966346,-1.95963 -23.805964,-5.28209 -34.495549,-11.64779 -9.543872,-5.68343 -18.499795,-13.89259 -25.215407,-23.11288 -7.6407,-10.49041 -12.775907,-22.91572 -15.087721,-36.50673 -0.557369,-3.27674 -0.607571,-4.36983 -0.607571,-13.22916 0,-8.85934 0.0502,-9.95243 0.607571,-13.22917 2.311814,-13.591004 7.447021,-26.016324 15.087721,-36.506724 2.677152,-3.67564 4.54136,-5.8631 8.089996,-9.492809 13.040732,-13.338665 28.755518,-21.506301 47.519919,-24.698103 3.27674,-0.557369 4.369831,-0.607571 13.2291658,-0.607571 8.85933474,0 9.95242624,0.0502 13.2291664,0.607571 18.7644008,3.191802 34.4791868,11.359438 47.5199178,24.698103 3.548636,3.629709 5.412845,5.817169 8.089997,9.492809 7.640698,10.4904 12.775906,22.91572 15.087722,36.506724 0.557368,3.27674 0.60757,4.36983 0.60757,13.22917 0,8.85933 -0.0502,9.95242 -0.60757,13.22916 -3.191801,18.7644 -11.359438,34.47919 -24.698105,47.51992 -3.62971,3.54864 -5.817172,5.41285 -9.492806,8.09 -10.446149,7.60846 -22.845415,12.74542 -36.3744341,15.06976 -3.04692836,0.52347 -4.48162876,0.5971 -12.5677081,0.64501 -5.0204688,0.0298 -9.4853118,0.004 -9.9218748,-0.0573 z m 64.183227,-38.19448 c 0.01196,-0.0728 0.07109,-0.42995 0.131408,-0.79375 0.0906,-0.5465 -0.241104,-0.98335 -1.90859,-2.51354 -4.650314,-4.26744 -7.059462,-6.91438 -7.604953,-8.3556 -0.406234,-1.07328 -0.436626,-3.74649 -0.369771,-32.52253 l 0.07285,-31.353124 0.575238,-1.19819 c 0.352814,-0.73489 1.409213,-1.96256 2.732045,-3.175 6.192465,-5.67567 6.66487,-6.18228 6.474003,-6.94275 l -0.179189,-0.71394 -14.855214,-0.0705 c -8.17037,-0.0388 -14.958898,0.009 -15.085621,0.10701 -0.221586,0.1707 -1.284194,2.55222 -1.750644,3.92356 -0.123743,0.3638 -0.662943,1.67348 -1.198219,2.91041 -0.535278,1.23693 -1.128998,2.73652 -1.319379,3.33242 -0.190381,0.59591 -0.584682,1.66747 -0.876226,2.38125 -1.5609649,3.821704 -3.0659069,7.476194 -3.3673259,8.176964 -0.187777,0.43656 -0.658,1.62718 -1.0449399,2.64583 -0.3869425,1.01865 -0.9817814,2.50693 -1.3218662,3.30728 -1.0242841,2.41058 -3.066497,7.4288 -3.76861116,9.26042 -0.3625876,0.94588 -0.929796,2.43417 -1.2604643,3.30729 -1.48890304,3.93143 -2.04172334,5.34602 -2.37817014,6.08542 -0.6545792,1.43854 -1.6948178,3.93735 -2.4782437,5.95312 -0.5847133,1.50448 -0.9061212,2.00474 -1.3290338,2.06859 -0.4065799,0.0614 -0.6363467,-0.11795 -0.8474869,-0.66146 -0.3223471,-0.82976 -0.9031631,-2.13791 -1.9169961,-4.31754 -0.3722794,-0.80037 -0.9251919,-1.99099 -1.2286929,-2.64584 -0.303501,-0.65484 -0.718651,-1.48828 -0.922552,-1.85208 -0.203898,-0.3638 -0.74721,-1.55443 -1.207355,-2.64583 -1.494866,-3.54564 -2.219232,-5.11743 -3.49976,-7.59405 -0.692361,-1.33906 -1.258837,-2.6312 -1.258837,-2.87142 0,-0.24021 -0.281281,-0.99008 -0.62507,-1.66637 -0.343792,-0.67629 -0.859578,-1.7654 -1.146196,-2.42025 -0.286618,-0.65483 -1.124508,-2.44077 -1.861979,-3.96874 -0.73747,-1.52797 -1.540155,-3.25437 -1.783744,-3.83646 -0.243589,-0.58208 -0.607819,-1.41552 -0.8094,-1.85208 -0.201583,-0.43656 -0.836062,-1.86531 -1.409954,-3.175004 -0.573894,-1.30969 -1.657379,-3.69094 -2.407743,-5.29167 -0.750366,-1.60073 -1.565619,-3.36784 -1.811671,-3.92691 -0.246051,-0.55908 -0.864086,-1.85 -1.373409,-2.86873 l -0.926042,-1.85223 -15.726669,0.0305 c -8.649668,0.0168 -15.753974,0.0578 -15.787348,0.0911 -0.03337,0.0334 -0.131689,0.35809 -0.218477,0.7216 -0.160822,0.67356 0.480591,1.60605 2.694474,3.9172 0.472943,0.49372 0.859896,0.98502 0.859896,1.09177 0,0.10676 0.47625,0.70997 1.058333,1.34048 0.582083,0.63051 1.058333,1.22705 1.058333,1.32565 0,0.0986 0.595313,0.80015 1.322917,1.55903 0.727604,0.75888 1.322917,1.4832 1.322917,1.6096 0,0.1264 0.297656,0.46395 0.661458,0.75012 0.363802,0.28617 0.661458,0.60041 0.661458,0.69832 0,0.0979 0.287716,0.55702 0.639366,1.02025 1.580353,2.081814 1.506595,0.58247 1.422196,28.910014 l -0.07719,25.90722 -0.633121,1.19063 c -0.348216,0.65484 -1.032825,1.65854 -1.521354,2.23044 -0.488527,0.57189 -0.888233,1.14544 -0.888233,1.27453 0,0.1291 -0.386953,0.61551 -0.859896,1.0809 -1.270378,1.2501 -2.637181,2.84806 -3.206258,3.7485 -0.275905,0.43657 -0.753814,1.0452 -1.062016,1.35251 -0.909746,0.90713 -2.902974,3.29506 -3.430625,4.10998 -0.268951,0.41537 -0.567734,0.75522 -0.663958,0.75522 -0.394788,0 -0.828882,1.10859 -0.674677,1.72299 l 0.165214,0.65826 h 15.960777 c 15.849767,0 15.961974,-0.004 16.132651,-0.54152 0.159531,-0.50264 -0.611391,-1.68371 -2.252879,-3.45149 -0.218281,-0.23507 -0.920681,-1.09969 -1.560891,-1.92136 -0.64021,-0.82168 -1.265288,-1.49396 -1.389062,-1.49396 -0.123775,0 -0.225047,-0.1344 -0.225047,-0.29866 0,-0.16427 -0.386953,-0.74215 -0.859896,-1.28419 -0.81734,-0.93675 -1.168791,-1.36999 -3.114413,-3.83915 -0.457814,-0.58101 -0.911741,-1.11679 -1.008727,-1.19063 -0.61051,-0.46478 -2.046922,-2.64626 -2.462334,-3.73953 -0.464285,-1.2219 -0.49213,-2.44604 -0.49213,-21.63595 0,-19.01652 0.0303,-20.37818 0.465339,-20.91543 0.548626,-0.67753 1.281665,-0.51433 1.536427,0.34204 0.258612,0.86934 1.846035,4.42985 3.616441,8.1115 0.87471,1.81901 1.68238,3.54542 1.794817,3.83646 0.11244,0.29104 0.50038,1.18401 0.862087,1.98437 0.361709,0.80037 1.167222,2.5863 1.79003,3.96875 0.622806,1.38245 1.35137,2.79749 1.619033,3.14454 0.267664,0.34704 0.486659,0.76499 0.486659,0.92876 0,0.16377 0.424688,1.24904 0.943753,2.41171 0.519062,1.16267 1.19629,2.70926 1.504947,3.43687 0.308661,0.7276 1.134129,2.43691 1.834375,3.79847 0.700246,1.36155 1.273175,2.58329 1.273175,2.71498 0,0.13168 0.595313,1.49847 1.322917,3.0373 0.727604,1.53884 1.322916,2.90909 1.322916,3.045 0,0.13591 0.528802,1.30002 1.175118,2.58691 0.646314,1.28689 1.706819,3.51693 2.356676,4.95565 0.649859,1.43872 1.652452,3.62788 2.227984,4.86481 0.575535,1.23693 1.494354,3.26099 2.041822,4.49792 0.547467,1.23693 1.0806,2.343 1.184743,2.45795 0.104143,0.11494 0.92828,0.24568 1.831417,0.29053 1.410774,0.0701 1.681323,0.008 1.920779,-0.43925 0.290007,-0.54188 2.9714772,-7.13944 3.4656395,-8.52694 0.8744214,-2.4552 3.3718817,-8.89405 3.6719986,-9.46698 0.1357365,-0.25914 0.5501798,-1.27117 0.9209801,-2.24896 0.3708004,-0.9778 0.9491928,-2.49218 1.2853168,-3.36531 0.336124,-0.87312 0.7611507,-2.00422 0.9445043,-2.51354 0.1833561,-0.50932 0.6654958,-1.69995 1.0714275,-2.64583 0.405929,-0.94589 0.93545554,-2.25558 1.17672384,-2.91042 0.2412682,-0.65484 0.5383212,-1.42875 0.6601194,-1.71979 0.83803856,-2.00255 1.67170886,-4.09508 2.63527116,-6.61459 0.6121823,-1.60072 1.3272134,-3.44619 1.5889578,-4.10104 0.4264025,-1.06679 1.8437542,-4.68053 3.5801671,-9.12812 2.1866169,-5.60074 2.9959119,-7.41692 3.3343769,-7.48287 0.953072,-0.18572 1.025978,1.62457 1.025978,25.47549 0,22.13921 -0.02193,23.20217 -0.505288,24.47422 -0.415619,1.09381 -1.249043,2.05841 -4.6963549,5.4355 -2.3050868,2.25814 -4.3994253,4.30121 -4.6540867,4.54016 -0.5092224,0.47781 -0.6019985,1.15541 -0.2116402,1.54573 0.2569448,0.25691 42.8553798,0.37515 42.8974718,0.11906 z"
       id="path4029"
       inkscape:connector-curvature="0" />
  </g>
</svg>
