<?xml version="1.0" encoding="UTF-8" standalone="no"?>
<svg
   xmlns:dc="http://purl.org/dc/elements/1.1/"
   xmlns:cc="http://creativecommons.org/ns#"
   xmlns:rdf="http://www.w3.org/1999/02/22-rdf-syntax-ns#"
   xmlns:svg="http://www.w3.org/2000/svg"
   xmlns="http://www.w3.org/2000/svg"
   xmlns:sodipodi="http://sodipodi.sourceforge.net/DTD/sodipodi-0.dtd"
   xmlns:inkscape="http://www.inkscape.org/namespaces/inkscape"
   height="79.369781"
   viewBox="0 0 136.97629 89.291004"
   version="1.1"
   style="shape-rendering:auto"
   id="svg1108"
   sodipodi:docname="nextjs.svg"
   inkscape:version="0.92.4 (5da689c313, 2019-01-14)"
   width="136.97629">
  <metadata
     id="metadata1114">
    <rdf:RDF>
      <cc:Work
         rdf:about="">
        <dc:format>image/svg+xml</dc:format>
        <dc:type
           rdf:resource="http://purl.org/dc/dcmitype/StillImage" />
        <dc:title></dc:title>
      </cc:Work>
    </rdf:RDF>
  </metadata>
  <defs
     id="defs1112" />
  <sodipodi:namedview
     pagecolor="#313131"
     bordercolor="#666666"
     borderopacity="1"
     objecttolerance="10"
     gridtolerance="10"
     guidetolerance="10"
     inkscape:pageopacity="0"
     inkscape:pageshadow="2"
     inkscape:window-width="1366"
     inkscape:window-height="715"
     id="namedview1110"
     showgrid="false"
     inkscape:zoom="2.8762046"
     inkscape:cx="62.594175"
     inkscape:cy="21.012551"
     inkscape:window-x="-8"
     inkscape:window-y="194"
     inkscape:window-maximized="1"
     inkscape:current-layer="svg1108" />
  <path
     id="path5391"
     style="fill:#ffffff;fill-opacity:1;fill-rule:nonzero"
     d="m -9.25,23.288 h 3.192 L 37.953,89.291 19.765,64.978 -6.581,26.441 -6.697,64.978 H -9.25 Z m 65.197,0 h 2.96 L 72.022,41.622 85.427,23.288 103.66,0 73.705,43.549 89.141,64.978 H 86.065 L 72.022,45.476 57.921,64.978 H 54.903 L 70.455,43.549 55.948,23.288 Z m -30.35,0 h 27.855 v 2.219 H 28.151 v 16.699 h 23.792 v 2.219 H 28.151 v 18.334 h 25.591 v 2.219 H 25.597 Z m 64.647,2.219 v -2.219 h 31.742 v 2.219 h -14.623 v 39.47 h -2.554 V 25.507 H 90.245 Z"
     inkscape:connector-curvature="0" />
  <path
     id="path1106"
     style="fill:#ffffff;fill-opacity:1;fill-rule:nonzero;stroke-width:1.72800004"
     d="m 132.96832,61.079512 h 2.38291 c 0.2039,1.473984 1.6416,2.41056 3.71347,2.41056 1.93018,0 3.34714,-1.00224 3.34714,-2.379456 0,-1.18368 -0.90029,-1.895616 -2.95143,-2.379456 l -1.99584,-0.48384 c -2.79936,-0.65664 -4.07808,-2.014848 -4.07808,-4.297536 0,-2.768256 2.25331,-4.610304 5.63328,-4.610304 3.14496,0 5.4432,1.842048 5.58144,4.45824 h -2.33971 c -0.22464,-1.430784 -1.4688,-2.325888 -3.27283,-2.325888 -1.9008,0 -3.1657,0.91584 -3.1657,2.31552 0,1.109376 0.81562,1.74528 2.83392,2.218752 l 1.70554,0.419904 c 3.17606,0.74304 4.48589,2.035584 4.48589,4.37184 0,2.97216 -2.29824,4.836672 -5.96679,4.836672 -3.43353,0 -5.74214,-1.778112 -5.91321,-4.556736 z m -12.65242,0.13824 h 2.36218 c 0.0329,1.282176 0.96768,2.14272 2.33971,2.14272 1.53446,0 2.40365,-0.92448 2.40365,-2.659392 V 49.717912 h 2.40364 v 10.993536 c 0,3.124224 -1.8023,4.923072 -4.78656,4.923072 -2.79936,0 -4.72089,-1.74528 -4.72089,-4.416768 z m -4.33382,4.221504 c -0.90375,0 -1.5794,-0.69984 -1.5794,-1.603584 0,-0.905472 0.67565,-1.605312 1.57767,-1.605312 0.91238,0 1.57766,0.69984 1.57766,1.605312 0,0.903744 -0.66528,1.603584 -1.57766,1.603584 z"
     inkscape:connector-curvature="0" />
</svg>
