<?xml version="1.0" encoding="UTF-8" standalone="no"?>
<!-- Created with Inkscape (http://www.inkscape.org/) -->

<svg
   xmlns:osb="http://www.openswatchbook.org/uri/2009/osb"
   xmlns:dc="http://purl.org/dc/elements/1.1/"
   xmlns:cc="http://creativecommons.org/ns#"
   xmlns:rdf="http://www.w3.org/1999/02/22-rdf-syntax-ns#"
   xmlns:svg="http://www.w3.org/2000/svg"
   xmlns="http://www.w3.org/2000/svg"
   xmlns:sodipodi="http://sodipodi.sourceforge.net/DTD/sodipodi-0.dtd"
   xmlns:inkscape="http://www.inkscape.org/namespaces/inkscape"
   width="31.369049mm"
   height="36.856972mm"
   viewBox="0 0 31.369047 36.856972"
   version="1.1"
   id="svg8"
   inkscape:version="0.92.4 (5da689c313, 2019-01-14)"
   sodipodi:docname="projects.svg">
  <defs
     id="defs2">
    <linearGradient
       id="linearGradient2908"
       osb:paint="solid">
      <stop
         style="stop-color:#ffffff;stop-opacity:1;"
         offset="0"
         id="stop2906" />
    </linearGradient>
  </defs>
  <sodipodi:namedview
     id="base"
     pagecolor="#242826"
     bordercolor="#666666"
     borderopacity="1.0"
     inkscape:pageopacity="0"
     inkscape:pageshadow="2"
     inkscape:zoom="4"
     inkscape:cx="64.906724"
     inkscape:cy="69.284275"
     inkscape:document-units="mm"
     inkscape:current-layer="layer1"
     showgrid="false"
     inkscape:window-width="1440"
     inkscape:window-height="847"
     inkscape:window-x="1358"
     inkscape:window-y="-8"
     inkscape:window-maximized="1" />
  <metadata
     id="metadata5">
    <rdf:RDF>
      <cc:Work
         rdf:about="">
        <dc:format>image/svg+xml</dc:format>
        <dc:type
           rdf:resource="http://purl.org/dc/dcmitype/StillImage" />
        <dc:title></dc:title>
      </cc:Work>
    </rdf:RDF>
  </metadata>
  <g
     inkscape:label="Layer 1"
     inkscape:groupmode="layer"
     id="layer1"
     transform="translate(-127.94504,-95.345129)">
    <path
       style="fill:#fefefe;stroke-width:0.08466667"
       d="m 136.4117,132.07315 c -3.1839,-0.39648 -4.77932,-1.56152 -5.50502,-4.02001 -0.17896,-0.60628 -0.19066,-0.84563 -0.25873,-5.29167 -0.0392,-2.56116 -0.10562,-4.92446 -0.14758,-5.25176 -0.1626,-1.26856 -0.83128,-2.00875 -2.02722,-2.24403 l -0.52811,-0.1039 v -1.37517 -1.37516 l 0.33843,-0.0541 c 0.88322,-0.14123 1.69906,-0.75343 2.02492,-1.51949 0.23412,-0.55038 0.27175,-1.22 0.34337,-6.11037 0.064,-4.36795 0.0753,-4.60033 0.25466,-5.206991 0.83334,-2.819254 2.86929,-4.040509 6.81762,-4.089519 l 1.35466,-0.01681 v 1.778 1.778 l -0.42333,0.05999 c -0.23283,0.033 -0.77388,0.104927 -1.20232,0.159844 -1.32286,0.169564 -1.86973,0.554496 -2.20307,1.550676 -0.12615,0.37701 -0.15042,1.01777 -0.19428,5.12981 -0.055,5.16093 -0.0287,4.898 -0.6087,6.07612 -0.26844,0.54528 -1.05664,1.45061 -1.5047,1.72832 l -0.20973,0.12999 0.26089,0.13491 c 0.59833,0.30941 1.44466,1.4591 1.82972,2.48558 0.18016,0.48026 0.18677,0.62794 0.23638,5.27775 0.0542,5.0835 0.0545,5.08613 0.4804,5.7772 0.34859,0.56557 1.22041,0.87514 2.77251,0.98449 l 0.76623,0.054 v 1.82033 1.82033 l -0.889,0.0122 c -0.48895,0.007 -1.28905,-0.0376 -1.778,-0.0985 z m 11.76867,-1.72125 v -1.84991 l 0.86783,-0.0551 c 1.67549,-0.10631 2.44539,-0.42937 2.80461,-1.17683 0.33969,-0.70684 0.39152,-1.46883 0.39205,-5.76358 2.6e-4,-2.1969 0.037,-4.21739 0.0817,-4.48996 0.16756,-1.02314 1.02823,-2.40205 1.88804,-3.02489 l 0.31924,-0.23126 -0.28589,-0.17669 c -0.66896,-0.41344 -1.33853,-1.32502 -1.74015,-2.36911 l -0.21558,-0.56046 -0.0516,-4.699 c -0.0558,-5.08014 -0.0682,-5.21905 -0.52921,-5.91568 -0.38265,-0.578209 -1.01477,-0.783734 -3.04416,-0.989745 l -0.48683,-0.04942 v -1.827569 -1.827567 l 1.41817,0.05591 c 3.47772,0.137099 5.362,1.019287 6.32104,2.959401 0.65693,1.328949 0.6579,1.337981 0.72732,6.748 0.0485,3.77916 0.0874,4.88145 0.18538,5.24934 0.2968,1.11458 0.81745,1.62908 1.97376,1.95045 l 0.508,0.14118 v 1.34602 1.34601 l -0.58528,0.14182 c -0.69131,0.1675 -1.18219,0.48808 -1.52192,0.99392 -0.46443,0.69152 -0.48957,0.97113 -0.55651,6.18793 -0.0581,4.52986 -0.0711,4.81961 -0.2443,5.461 -0.69866,2.5871 -2.26026,3.73498 -5.64333,4.14821 -0.5588,0.0683 -1.36842,0.12486 -1.79916,0.12578 l -0.78317,0.002 z"
       id="path3057"
       inkscape:connector-curvature="0" />
  </g>
</svg>
