<?xml version="1.0" encoding="UTF-8" standalone="no"?>
<!-- Created with Inkscape (http://www.inkscape.org/) -->

<svg
   xmlns:osb="http://www.openswatchbook.org/uri/2009/osb"
   xmlns:dc="http://purl.org/dc/elements/1.1/"
   xmlns:cc="http://creativecommons.org/ns#"
   xmlns:rdf="http://www.w3.org/1999/02/22-rdf-syntax-ns#"
   xmlns:svg="http://www.w3.org/2000/svg"
   xmlns="http://www.w3.org/2000/svg"
   xmlns:sodipodi="http://sodipodi.sourceforge.net/DTD/sodipodi-0.dtd"
   xmlns:inkscape="http://www.inkscape.org/namespaces/inkscape"
   width="28.951445mm"
   height="41.139824mm"
   viewBox="0 0 28.951443 41.139824"
   version="1.1"
   id="svg8"
   inkscape:version="0.92.4 (5da689c313, 2019-01-14)"
   sodipodi:docname="social.svg">
  <defs
     id="defs2">
    <linearGradient
       id="linearGradient2908"
       osb:paint="solid">
      <stop
         style="stop-color:#ffffff;stop-opacity:1;"
         offset="0"
         id="stop2906" />
    </linearGradient>
  </defs>
  <sodipodi:namedview
     id="base"
     pagecolor="#242826"
     bordercolor="#666666"
     borderopacity="1.0"
     inkscape:pageopacity="0"
     inkscape:pageshadow="2"
     inkscape:zoom="4"
     inkscape:cx="54.816722"
     inkscape:cy="88.593192"
     inkscape:document-units="mm"
     inkscape:current-layer="layer1"
     showgrid="false"
     inkscape:window-width="1440"
     inkscape:window-height="847"
     inkscape:window-x="1358"
     inkscape:window-y="-8"
     inkscape:window-maximized="1" />
  <metadata
     id="metadata5">
    <rdf:RDF>
      <cc:Work
         rdf:about="">
        <dc:format>image/svg+xml</dc:format>
        <dc:type
           rdf:resource="http://purl.org/dc/dcmitype/StillImage" />
        <dc:title></dc:title>
      </cc:Work>
    </rdf:RDF>
  </metadata>
  <g
     inkscape:label="Layer 1"
     inkscape:groupmode="layer"
     id="layer1"
     transform="translate(-110.10948,-85.455469)">
    <g
       id="g3030"
       transform="translate(-0.5953125,7.0776041)">
      <path
         style="fill:#fefefe;stroke-width:0.08466667"
         d="m 110.864,119.32733 c -0.17503,-0.17503 -0.17595,-0.20622 -0.14148,-4.80483 0.0323,-4.30673 0.0474,-4.69382 0.21674,-5.56557 0.48695,-2.50618 1.37948,-4.4516 2.78256,-6.06511 1.9242,-2.21278 4.95113,-3.741902 8.57903,-4.333882 0.72007,-0.117497 1.16292,-0.1638 2.45533,-0.256723 0.63235,-0.04546 2.52056,0.110228 3.556,0.293212 5.81838,1.028225 9.62206,4.231693 10.88447,9.166923 0.41941,1.63961 0.45765,2.22072 0.45932,6.97966 0.002,4.31202 -0.003,4.42811 -0.16779,4.59317 -0.16798,0.16798 -0.28222,0.16933 -14.30866,0.16933 h -14.13934 z m 12.85801,-22.476444 c -2.53305,-0.394419 -4.90182,-1.885839 -6.27643,-3.95176 -1.25687,-1.888953 -1.82759,-4.085801 -1.59075,-6.123229 0.5225,-4.494972 3.8521,-7.824576 8.34708,-8.347078 2.59352,-0.301475 5.5266,0.753076 7.45324,2.679721 1.92665,1.926645 2.9812,4.859721 2.67972,7.453245 -0.50466,4.34152 -3.67416,7.650637 -7.94433,8.294281 -0.9949,0.149962 -1.68072,0.148631 -2.66853,-0.0052 z"
         id="path3044"
         inkscape:connector-curvature="0" />
      <path
         style="fill:#fcfcfc;stroke-width:0.08466667"
         d="m 110.993,119.38343 c -0.0903,-0.066 -0.14139,-0.1429 -0.1135,-0.1708 0.0688,-0.0688 28.43473,-0.0606 28.5461,0.008 0.0543,0.0335 0.0282,0.0985 -0.0678,0.1686 -0.23957,0.17518 -28.12512,0.16928 -28.36483,-0.006 z m 9.93331,-20.467917 c 0.17452,-0.174522 1.8594,-0.433897 3.49121,-0.537447 0.8874,-0.05631 3.04648,0.07036 3.39467,0.199167 0.10114,0.03741 -0.74511,0.06531 -1.88056,0.06198 -1.50381,-0.0044 -2.36335,0.03365 -3.16511,0.140131 -1.56653,0.208042 -1.9397,0.235654 -1.84021,0.136165 z m 2.3511,-2.189806 c -1.00477,-0.211631 -1.62263,-0.443379 -2.54289,-0.953794 -0.97965,-0.543352 -1.54142,-0.978986 -2.32849,-1.80564 -0.74396,-0.781381 -1.14857,-1.369173 -1.60791,-2.335872 -1.20191,-2.529442 -1.20191,-5.393678 0,-7.92312 0.45934,-0.966699 0.86395,-1.554491 1.60791,-2.335872 1.83508,-1.927383 4.11929,-2.931235 6.66986,-2.931235 1.13534,0 2.14453,0.167938 3.0794,0.512435 3.0277,1.115703 5.15806,3.484045 5.93643,6.599565 0.25861,1.035158 0.25861,3.198176 0,4.233334 -0.77837,3.11552 -2.90873,5.483862 -5.93643,6.599565 -1.42618,0.525544 -3.35911,0.660525 -4.87788,0.340634 z m 3.57424,-0.294881 c 2.78927,-0.529116 5.0404,-2.293287 6.32489,-4.95671 0.60977,-1.264363 0.80831,-2.19904 0.80831,-3.805275 0,-1.14145 -0.0304,-1.453113 -0.21134,-2.169311 -0.74382,-2.943599 -3.07174,-5.463193 -5.84233,-6.323377 -1.08502,-0.336866 -1.83401,-0.422159 -3.31513,-0.37752 -1.16772,0.03519 -1.43478,0.07075 -2.0612,0.274415 -2.52643,0.821407 -4.41474,2.45376 -5.54169,4.790518 -0.60977,1.264363 -0.80831,2.19904 -0.80831,3.805275 0,1.14145 0.0304,1.453113 0.21134,2.169311 0.3593,1.421904 1.17375,2.905316 2.19803,4.003425 1.11556,1.195968 3.12005,2.313538 4.70845,2.625116 0.6424,0.126012 2.79073,0.104178 3.52898,-0.03587 z"
         id="path3042"
         inkscape:connector-curvature="0" />
      <path
         style="fill:#f9f9f9;stroke-width:0.08466667"
         d="m 110.99748,119.33358 c -0.029,-0.0469 -0.003,-0.10431 0.0585,-0.12757 0.0612,-0.0233 6.43263,-0.0325 14.15881,-0.0206 11.14733,0.0173 14.0549,0.0436 14.08289,0.12757 0.0457,0.13704 -28.21552,0.15758 -28.3002,0.0206 z m 10.77945,-20.570678 c 0.48673,-0.213396 3.03087,-0.443346 4.02298,-0.363615 0.88172,0.07086 0.50101,0.188537 -0.62039,0.191762 -0.53552,0.0015 -1.31657,0.0395 -1.73567,0.08436 -1.48844,0.159305 -1.87725,0.179714 -1.66692,0.0875 z m 2.09025,-1.944833 c -0.5782,-0.09583 -1.49633,-0.341429 -1.651,-0.441634 -0.089,-0.05768 -0.051,-0.06469 0.127,-0.02346 0.75072,0.173842 1.06621,0.1988 2.55563,0.202182 1.73811,0.0039 2.26803,-0.0674 3.41039,-0.459178 0.85896,-0.294579 2.10253,-0.996886 2.6919,-1.520247 0.72537,-0.644134 0.90397,-0.737499 0.27442,-0.143455 -1.61421,1.523162 -3.64217,2.358518 -5.88434,2.423877 -0.60536,0.01765 -1.29116,5.08e-4 -1.524,-0.03808 z m -5.25466,-2.735728 -0.24867,-0.275166 0.27517,0.248673 c 0.25649,0.231799 0.31408,0.30166 0.24867,0.30166 -0.0146,0 -0.1384,-0.123825 -0.27517,-0.275167 z m -0.20634,-12.62066 c 0,-0.01457 0.12383,-0.138396 0.27517,-0.275166 l 0.27517,-0.248674 -0.24868,0.275167 c -0.2318,0.256494 -0.30166,0.314083 -0.30166,0.248673 z m 12.70112,-0.601837 c -0.71175,-0.626349 -1.88564,-1.30521 -2.7981,-1.618138 -1.14236,-0.391774 -1.67228,-0.463123 -3.41039,-0.459178 -1.48942,0.0034 -1.80491,0.02834 -2.55563,0.202183 -0.55423,0.128343 0.0257,-0.113671 0.72109,-0.300917 0.61137,-0.164625 0.91982,-0.192811 2.07291,-0.189421 1.19246,0.0035 1.45293,0.03073 2.1753,0.227352 1.50966,0.410917 2.84405,1.141665 3.96304,2.170271 0.73624,0.676777 0.60994,0.652636 -0.16822,-0.03215 z"
         id="path3040"
         inkscape:connector-curvature="0" />
      <path
         style="fill:#f6f6f6;stroke-width:0.08466667"
         d="m 111.08252,119.33418 c -0.0348,-0.0563 4.66989,-0.0847 14.04967,-0.0847 9.34488,0 14.10199,0.0286 14.10199,0.0847 0,0.0561 -4.73967,0.0847 -14.04967,0.0847 -9.27512,0 -14.06745,-0.0288 -14.10199,-0.0847 z m 10.98109,-20.618993 c 0.1701,-0.170097 3.70307,-0.412073 3.85136,-0.263782 0.0301,0.03012 -0.28496,0.0551 -0.70018,0.05551 -0.41522,4.24e-4 -1.23119,0.05722 -1.81327,0.126265 -1.14365,0.135648 -1.40773,0.151835 -1.33791,0.08201 z m 1.92136,-1.905635 c -1.14065,-0.158979 -0.943,-0.22377 0.56456,-0.18507 2.05368,0.05272 3.06129,-0.14486 4.79982,-0.941181 0.26776,-0.122645 0.48683,-0.202083 0.48683,-0.176527 0,0.02556 -0.39052,0.232955 -0.86783,0.46089 -1.50306,0.717773 -3.47892,1.051573 -4.98338,0.841888 z M 129.1692,79.5804 c -1.5354,-0.720262 -2.64897,-0.926349 -4.68746,-0.8675 -1.52707,0.04408 -1.6418,-0.03165 -0.29585,-0.195302 1.50345,-0.182801 3.27638,0.133203 4.78246,0.85242 0.47731,0.227934 0.86783,0.435816 0.86783,0.461958 0,0.06443 0.034,0.07726 -0.66698,-0.251576 z"
         id="path3038"
         inkscape:connector-curvature="0" />
      <path
         style="fill:#f2f2f2;stroke-width:0.08466667"
         d="m 111.16718,119.33418 c -0.0348,-0.0563 4.65746,-0.0847 14.01234,-0.0847 9.35488,0 14.04713,0.0284 14.01233,0.0847 -0.0345,0.0559 -4.79699,0.0847 -14.01233,0.0847 -9.21535,0 -13.9778,-0.0288 -14.01234,-0.0847 z m 11.4935,-20.717035 c 0.0815,-0.0213 0.21484,-0.0213 0.29634,0 0.0815,0.0213 0.0148,0.03872 -0.14817,0.03872 -0.16298,0 -0.22966,-0.01742 -0.14817,-0.03872 z m 0.74084,-0.05903 c 0,-0.06953 0.51781,-0.104563 0.55905,-0.03783 0.024,0.0388 -0.092,0.07055 -0.25772,0.07055 -0.16574,0 -0.30133,-0.01473 -0.30133,-0.03272 z m 1.46191,-0.102743 c 0.0279,-0.02794 0.18923,-0.0508 0.35842,-0.0508 0.16919,0 0.33048,0.02286 0.35842,0.0508 0.0279,0.02794 -0.13335,0.0508 -0.35842,0.0508 -0.22507,0 -0.38636,-0.02286 -0.35842,-0.0508 z m -1.12325,-1.717321 c -0.18437,-0.03928 0.35942,-0.07999 1.43934,-0.107749 1.5491,-0.03982 1.81302,-0.06817 2.45533,-0.263708 0.39582,-0.120499 0.79587,-0.241325 0.889,-0.268502 0.0931,-0.02718 0.007,0.029 -0.19194,0.124833 -0.7585,0.365829 -1.60039,0.521183 -2.98306,0.550464 -0.72178,0.01529 -1.44568,-5.93e-4 -1.60867,-0.03534 z m 4.32619,-17.625987 c -0.88609,-0.314559 -1.64796,-0.417599 -3.15845,-0.427169 -1.15351,-0.0073 -1.38325,-0.02635 -1.08307,-0.08976 0.20955,-0.04427 0.93345,-0.06276 1.60867,-0.04109 1.27204,0.04082 2.14857,0.207901 2.89839,0.552494 0.46183,0.212243 0.32481,0.215095 -0.26554,0.0055 z"
         id="path3036"
         inkscape:connector-curvature="0" />
      <path
         style="fill:#eeeeee;stroke-width:0.08466667"
         d="m 118.1377,119.27068 c 3.88035,-0.0122 10.20495,-0.0122 14.05467,0 3.84971,0.0122 0.67488,0.0221 -7.05519,0.0221 -7.73006,0 -10.87983,-0.01 -6.99948,-0.0221 z m 7.02594,-20.822342 c 0.0611,-0.02446 0.13415,-0.02145 0.16228,0.0067 0.0281,0.02813 -0.0219,0.04815 -0.11113,0.04447 -0.0986,-0.0041 -0.11869,-0.02412 -0.0511,-0.05115 z m -1.25412,-1.714612 c -0.13771,-0.04771 0.26166,-0.07661 1.143,-0.08271 0.74506,-0.0052 1.50706,-0.02802 1.69333,-0.05081 0.32513,-0.03978 0.32851,-0.0378 0.0847,0.04957 -0.32161,0.115235 -2.63853,0.181822 -2.921,0.08395 z m 3.28612,-0.232721 c 0.0611,-0.02446 0.13415,-0.02145 0.16228,0.0067 0.0281,0.02813 -0.0219,0.04815 -0.11113,0.04447 -0.0986,-0.0041 -0.11869,-0.02412 -0.0512,-0.05115 z m 0.33867,-0.08467 c 0.0611,-0.02446 0.13414,-0.02145 0.16228,0.0067 0.0281,0.02813 -0.0219,0.04815 -0.11113,0.04447 -0.0986,-0.0041 -0.11869,-0.02413 -0.0511,-0.05115 z m 0,-17.526001 c 0.0611,-0.02446 0.13414,-0.02145 0.16228,0.0067 0.0281,0.02813 -0.0219,0.04814 -0.11113,0.04447 -0.0986,-0.0041 -0.11869,-0.02412 -0.0511,-0.05115 z m -0.33867,-0.08467 c 0.0611,-0.02446 0.13415,-0.02145 0.16228,0.0067 0.0281,0.02813 -0.0219,0.04815 -0.11113,0.04447 -0.0986,-0.0041 -0.11869,-0.02412 -0.0512,-0.05115 z m -2.01612,-0.108459 c -1.21442,-0.03719 -1.40661,-0.05894 -1.0655,-0.120584 0.48139,-0.087 2.34214,-0.01441 2.7165,0.105976 0.22703,0.07301 0.23152,0.08053 0.0423,0.07083 -0.11642,-0.006 -0.87842,-0.03127 -1.69333,-0.05622 z"
         id="path3034"
         inkscape:connector-curvature="0" />
      <path
         style="fill:#e4e4e4;stroke-width:0.08466667"
         d="m 124.33285,96.728175 c 0,-0.05017 0.31044,-0.08467 0.762,-0.08467 0.45155,0 0.762,0.03449 0.762,0.08467 0,0.05017 -0.31045,0.08467 -0.762,0.08467 -0.45156,0 -0.762,-0.03449 -0.762,-0.08467 z m 0,-18.118667 c 0,-0.05017 0.31044,-0.08467 0.762,-0.08467 0.45155,0 0.762,0.03449 0.762,0.08467 0,0.05017 -0.31045,0.08467 -0.762,0.08467 -0.45156,0 -0.762,-0.03449 -0.762,-0.08467 z"
         id="path3032"
         inkscape:connector-curvature="0" />
    </g>
  </g>
</svg>
