<?xml version="1.0" encoding="UTF-8" standalone="no"?>
<!-- Created with Inkscape (http://www.inkscape.org/) -->

<svg
   xmlns:dc="http://purl.org/dc/elements/1.1/"
   xmlns:cc="http://creativecommons.org/ns#"
   xmlns:rdf="http://www.w3.org/1999/02/22-rdf-syntax-ns#"
   xmlns:svg="http://www.w3.org/2000/svg"
   xmlns="http://www.w3.org/2000/svg"
   xmlns:sodipodi="http://sodipodi.sourceforge.net/DTD/sodipodi-0.dtd"
   xmlns:inkscape="http://www.inkscape.org/namespaces/inkscape"
   width="338.66666mm"
   height="338.66666mm"
   viewBox="0 0 338.66665 338.66666"
   version="1.1"
   id="svg8"
   sodipodi:docname="soundcloud.svg"
   inkscape:version="0.92.4 (5da689c313, 2019-01-14)">
  <defs
     id="defs2" />
  <sodipodi:namedview
     id="base"
     pagecolor="#434343"
     bordercolor="#666666"
     borderopacity="1.0"
     inkscape:pageopacity="0"
     inkscape:pageshadow="2"
     inkscape:zoom="0.5"
     inkscape:cx="245.26432"
     inkscape:cy="1050.5096"
     inkscape:document-units="mm"
     inkscape:current-layer="layer1"
     showgrid="false"
     inkscape:window-width="1440"
     inkscape:window-height="847"
     inkscape:window-x="1358"
     inkscape:window-y="-8"
     inkscape:window-maximized="1" />
  <metadata
     id="metadata5">
    <rdf:RDF>
      <cc:Work
         rdf:about="">
        <dc:format>image/svg+xml</dc:format>
        <dc:type
           rdf:resource="http://purl.org/dc/dcmitype/StillImage" />
        <dc:title></dc:title>
      </cc:Work>
    </rdf:RDF>
  </metadata>
  <g
     inkscape:label="Layer 1"
     inkscape:groupmode="layer"
     id="layer1"
     transform="translate(-55.79064,31.363076)">
    <flowRoot
       xml:space="preserve"
       id="flowRoot6921"
       style="font-style:normal;font-weight:normal;font-size:40px;line-height:1.25;font-family:sans-serif;letter-spacing:0px;word-spacing:0px;fill:#000000;fill-opacity:1;stroke:none"
       transform="matrix(0.26458333,0,0,0.26458333,115.33466,128.70574)"><flowRegion
         id="flowRegion6923"><rect
           id="rect6925"
           width="144.24979"
           height="123.03658"
           x="234.75945"
           y="73.195915" /></flowRegion><flowPara
         id="flowPara6927"></flowPara></flowRoot>    <text
       xml:space="preserve"
       style="font-style:normal;font-weight:normal;font-size:10.58333302px;line-height:1.25;font-family:sans-serif;letter-spacing:0px;word-spacing:0px;fill:#000000;fill-opacity:1;stroke:none;stroke-width:0.26458332"
       x="196.15697"
       y="168.65192"
       id="text6931"><tspan
         sodipodi:role="line"
         id="tspan6929"
         x="196.15697"
         y="178.30742"
         style="stroke-width:0.26458332" /></text>
    <path
       style="fill:#fe5721;stroke-width:0.26458332"
       d="M 55.79064,137.97025 V -31.363076 H 225.12397 394.4573 V 137.97025 307.30358 H 225.12397 55.79064 Z m 147.10833,40.76219 c 1.31785,-0.91812 1.35376,-1.18368 2.24255,-16.58441 l 0.84359,-14.61755 -0.83575,-30.11397 c -0.54152,-19.511776 -0.9365,-30.300266 -1.12191,-30.643126 -0.91873,-1.69901 -2.76761,-2.36136 -4.41256,-1.58079 -1.93376,0.91763 -1.76562,-1.11512 -2.61456,31.610986 l -0.76528,29.50104 0.69261,14.41979 c 0.38094,7.93089 0.75644,14.92524 0.83444,15.54302 0.33262,2.63419 3.03361,3.9303 5.13687,2.46501 z m 11.20886,0.41258 c 1.17631,-0.4915 1.96337,-1.55761 2.13722,-2.89496 0.0791,-0.60822 0.46043,-7.23757 0.84748,-14.7319 l 0.70372,-13.62604 -0.73123,-35.71875 c -0.6724,-32.844616 -0.76958,-35.807706 -1.20775,-36.824436 -1.11967,-2.59807 -4.66164,-2.69815 -6.14038,-0.17351 -0.41869,0.71483 -0.51694,3.86254 -1.14158,36.574966 l -0.68347,35.79283 0.69409,14.57125 c 0.71478,15.00566 0.7553,15.35559 1.89816,16.38987 1.08646,0.98323 2.29325,1.19659 3.62374,0.64068 z m 121.09638,-0.005 c 5.09743,-0.8275 10.30409,-2.90356 14.46342,-5.76706 2.47684,-1.70518 6.10804,-5.24325 7.95835,-7.75426 1.73601,-2.3559 4.02492,-6.7944 4.91199,-9.525 2.79773,-8.6121 2.12359,-18.24019 -1.82629,-26.08386 -7.63633,-15.16415 -25.30893,-22.57719 -41.20402,-17.28365 -1.13436,0.37778 -2.21942,0.62664 -2.41125,0.55303 -0.21346,-0.0819 -0.42043,-0.83321 -0.53346,-1.93648 -0.27728,-2.7064 -1.40451,-7.77065 -2.41896,-10.86746 C 305.937,75.421564 282.79803,58.594754 256.553,58.594754 c -8.73205,0 -21.1316,2.81306 -24.00451,5.44584 l -0.94223,0.86348 -0.0755,55.252106 c -0.0415,30.38866 -0.007,55.63556 0.0767,56.10421 0.18941,1.06088 1.30174,2.41281 2.36692,2.87678 1.22482,0.53349 97.94422,0.53622 101.22982,0.003 z m -190.14755,-0.50183 c 0.73331,-0.73331 0.61331,0.28536 2.048,-17.38512 l 1.1278,-13.89062 -1.23823,-23.12598 c -1.32176,-24.685836 -1.24989,-24.01853 -2.65582,-24.659106 -0.76082,-0.34666 -1.86722,0.0589 -2.38941,0.875876 -0.30975,0.48461 -0.60963,5.29097 -1.48602,23.81751 l -1.09795,23.21039 1.08335,14.88961 c 0.59584,8.18929 1.2144,15.21986 1.37458,15.62349 0.54123,1.36382 2.18624,1.69141 3.2337,0.64395 z m 11.53337,-0.0476 c 0.70207,-0.74732 0.65687,-0.32944 2.14738,-19.85105 l 0.86866,-11.37708 -1.1139,-27.91354 c -0.61265,-15.35245 -1.17508,-28.295336 -1.24985,-28.761976 -0.37667,-2.35081 -3.92229,-2.5631 -4.48823,-0.26872 -0.0798,0.32339 -0.60517,13.304916 -1.16755,28.847836 l -1.02252,28.25985 1.02886,14.86723 c 0.56587,8.17698 1.16498,15.19748 1.33134,15.60111 0.38019,0.92241 0.90516,1.23225 2.10519,1.24245 0.67111,0.006 1.12467,-0.18207 1.56062,-0.64611 z m 11.38805,-0.0734 c 0.97768,-0.88235 0.81061,0.49102 2.08915,-17.17324 l 0.99883,-13.79981 -0.995,-28.79811 c -0.54725,-15.83896 -1.04231,-29.856546 -1.10013,-31.150196 -0.1008,-2.2552 -0.14002,-2.38326 -0.9521,-3.10885 -0.46583,-0.41622 -1.14865,-0.75676 -1.51738,-0.75676 -1.01468,0 -2.12201,0.68106 -2.45326,1.50887 -0.19134,0.47819 -0.63257,11.62006 -1.24683,31.484716 l -0.95069,30.74464 0.95168,14.7637 c 0.52343,8.12003 1.08414,15.09585 1.24603,15.50183 0.65402,1.64009 2.55946,2.01985 3.9297,0.78321 z m 11.68156,0 c 0.3697,-0.40018 0.73585,-0.91103 0.81368,-1.13522 0.0778,-0.22419 0.59182,-7.03446 1.1422,-15.13394 l 1.00067,-14.72633 -0.99468,-31.82836 c -0.75118,-24.036576 -1.08097,-32.034876 -1.34715,-32.671916 -0.45324,-1.08478 -1.75078,-1.77465 -2.92388,-1.55458 -1.27649,0.23947 -2.16321,1.42457 -2.33488,3.12054 -0.0775,0.76549 -0.5108,15.26257 -0.96292,32.215746 l -0.82202,30.82396 0.81012,13.62604 c 1.00934,16.97662 0.93621,16.30414 1.875,17.24293 1.05428,1.05428 2.78042,1.06402 3.74386,0.0211 z m 11.57237,0.0468 c 0.45955,-0.38669 0.91311,-1.10104 1.04994,-1.65364 0.13249,-0.53508 0.63129,-7.46178 1.10845,-15.39267 l 0.86756,-14.41979 -0.92312,-30.95625 c -0.79375,-26.618176 -0.98229,-31.068786 -1.34546,-31.759346 -1.21368,-2.30783 -4.65206,-1.95057 -5.40972,0.56209 -0.21022,0.69714 -0.56781,11.13524 -1.09595,31.991006 l -0.78393,30.95625 0.74453,13.22917 c 0.91468,16.25238 0.90208,16.10282 1.4185,16.84011 1.0043,1.43385 3.04683,1.71577 4.3692,0.60307 z m 34.94257,0.28789 c 1.02469,-0.52989 1.81044,-1.6934 1.98696,-2.94226 0.0801,-0.56676 0.50992,-7.1622 0.95512,-14.65652 l 0.80946,-13.62604 -0.82003,-38.49688 c -0.45101,-21.173276 -0.88253,-38.886356 -0.95892,-39.362416 -0.1825,-1.13732 -1.48744,-2.59504 -2.67348,-2.98646 -1.89314,-0.6248 -4.3663,0.9475 -4.69759,2.98646 -0.0774,0.47606 -0.47706,18.18914 -0.88824,39.362416 l -0.74761,38.49688 0.71821,13.09687 c 0.8814,16.07274 0.86696,15.90605 1.45573,16.80463 1.03575,1.58075 3.21513,2.17412 4.86039,1.32332 z m -92.31019,-0.66545 c 0.39414,-0.55367 0.68541,-3.11903 1.7874,-15.74271 l 1.31652,-15.08124 -1.28481,-13.75834 c -0.70664,-7.56708 -1.35512,-14.14186 -1.44106,-14.61062 -0.16291,-0.88853 -0.9847,-1.66125 -1.76675,-1.66125 -0.25055,0 -0.76643,0.26789 -1.1464,0.59531 l -0.69086,0.59531 -1.18872,14.41979 -1.18872,14.4198 1.0749,14.02291 c 1.28444,16.75648 1.25092,16.45555 1.90538,17.11001 0.70724,0.70724 2.00886,0.55393 2.62312,-0.30897 z m -11.28904,-0.33073 c 0.27495,-0.4235 0.77327,-4.68061 1.72665,-14.75052 0.73709,-7.78536 1.33982,-14.84463 1.3394,-15.68727 -5.3e-4,-0.84264 -0.59608,-7.97546 -1.32368,-15.85072 -0.7276,-7.87525 -1.32292,-14.4784 -1.32292,-14.67366 0,-0.56862 -1.00337,-1.41335 -1.67878,-1.41335 -1.50064,0 -1.4691,-0.18469 -2.82338,16.53369 l -1.25442,15.4856 1.27187,15.01275 c 0.69953,8.25702 1.28039,15.03402 1.29079,15.06 0.0104,0.026 0.20602,0.23435 0.4347,0.46302 0.62461,0.62462 1.88024,0.52827 2.33977,-0.17954 z m -11.3838,-0.8684 c 0.22296,-0.22296 0.46883,-0.7885 0.54638,-1.25677 0.37285,-2.25135 2.78909,-27.02649 2.7812,-28.51733 -0.0149,-2.80821 -2.78609,-29.43641 -3.1304,-30.07937 -0.3688,-0.6887 -1.38616,-0.79444 -1.9753,-0.20531 -0.49943,0.49943 -0.4883,0.40171 -1.90611,16.73998 l -1.1995,13.82269 1.19945,13.2971 c 1.43301,15.88618 1.4137,15.72193 1.90616,16.21439 0.50391,0.50391 1.26542,0.49733 1.77812,-0.0154 z m -10.9773,-4.45762 c 0.16665,-0.2008 1.00868,-5.90434 1.87118,-12.67454 l 1.56818,-12.30946 -1.56057,-12.63834 c -1.34001,-10.85208 -1.63273,-12.71049 -2.07113,-13.14889 -0.41718,-0.41718 -0.61265,-0.45591 -1.06883,-0.21177 -0.30705,0.16433 -0.61771,0.56323 -0.69034,0.88645 -0.0726,0.32323 -0.72886,6.06455 -1.45827,12.75851 l -1.32621,12.17084 1.33409,12.17083 c 0.73375,6.69396 1.44555,12.43872 1.58177,12.76614 0.28247,0.67895 1.33702,0.81234 1.82013,0.23023 z m -10.32893,-9.24766 c 0.16105,-0.19405 0.84303,-3.83593 1.51552,-8.09305 l 1.22271,-7.74023 -1.22946,-7.83415 c -0.6762,-4.30878 -1.35819,-7.98925 -1.51552,-8.17883 -0.34466,-0.41529 -1.44403,-0.4562 -1.68717,-0.0628 -0.0958,0.15504 -0.64294,3.81621 -1.21583,8.13593 l -1.0416,7.85405 0.95692,7.40833 c 0.5263,4.07458 1.08084,7.73575 1.2323,8.13594 0.30187,0.79755 1.24482,0.99811 1.76213,0.37479 z"
       id="path7366"
       inkscape:connector-curvature="0" />
  </g>
</svg>
