<?xml version="1.0" encoding="UTF-8" standalone="no"?>
<!-- Created with Inkscape (http://www.inkscape.org/) -->

<svg
   xmlns:dc="http://purl.org/dc/elements/1.1/"
   xmlns:cc="http://creativecommons.org/ns#"
   xmlns:rdf="http://www.w3.org/1999/02/22-rdf-syntax-ns#"
   xmlns:svg="http://www.w3.org/2000/svg"
   xmlns="http://www.w3.org/2000/svg"
   xmlns:sodipodi="http://sodipodi.sourceforge.net/DTD/sodipodi-0.dtd"
   xmlns:inkscape="http://www.inkscape.org/namespaces/inkscape"
   width="164.98175mm"
   height="84.099098mm"
   viewBox="0 0 164.98175 84.0991"
   version="1.1"
   id="svg8"
   sodipodi:docname="threejs.svg"
   inkscape:version="0.92.4 (5da689c313, 2019-01-14)">
  <defs
     id="defs2" />
  <sodipodi:namedview
     id="base"
     pagecolor="#434343"
     bordercolor="#666666"
     borderopacity="1.0"
     inkscape:pageopacity="0"
     inkscape:pageshadow="2"
     inkscape:zoom="0.70710678"
     inkscape:cx="604.35301"
     inkscape:cy="148.75426"
     inkscape:document-units="mm"
     inkscape:current-layer="layer1"
     showgrid="false"
     inkscape:window-width="1440"
     inkscape:window-height="847"
     inkscape:window-x="1358"
     inkscape:window-y="-8"
     inkscape:window-maximized="1" />
  <metadata
     id="metadata5">
    <rdf:RDF>
      <cc:Work
         rdf:about="">
        <dc:format>image/svg+xml</dc:format>
        <dc:type
           rdf:resource="http://purl.org/dc/dcmitype/StillImage" />
        <dc:title></dc:title>
      </cc:Work>
    </rdf:RDF>
  </metadata>
  <g
     inkscape:label="Layer 1"
     inkscape:groupmode="layer"
     id="layer1"
     transform="translate(-115.33466,-128.70574)">
    <g
       id="g1080"
       transform="translate(-10.054167,-19.579167)">
      <path
         style="fill:#ffffff;fill-opacity:1;stroke-width:0.26458335"
         d="m 145.60751,232.1094 c -0.0705,-0.19164 -1.62494,-6.42063 -3.45425,-13.8422 -4.65524,-18.88644 -9.03777,-36.63617 -13.37888,-54.1859 -3.77752,-15.27132 -3.87017,-15.79639 -2.78732,-15.79639 0.24902,0 35.10393,9.99688 71.59765,20.53522 5.74126,1.65791 10.54862,3.12435 10.68302,3.25875 0.13441,0.13441 0.16307,0.52098 0.0637,0.85906 -0.26725,0.9092 -61.17182,59.33172 -61.96117,59.43605 -0.35009,0.0463 -0.69199,-0.0723 -0.76275,-0.26459 z m 9.64433,-10.32397 c 2.68558,-2.57873 4.82871,-4.73749 4.7625,-4.79725 -0.2419,-0.21836 -17.21902,-4.99385 -17.33634,-4.87654 -0.0666,0.0666 0.85459,4.06655 2.04701,8.88886 l 2.16802,8.76783 1.73797,-1.64715 c 0.95588,-0.90594 3.93526,-3.75702 6.62084,-6.33575 z m 5.03942,-7.15625 c 7.9e-4,-0.66412 -4.02569,-16.60247 -4.19326,-16.5984 -0.19726,0.005 -12.31858,11.64785 -12.49363,12.00067 -0.10653,0.21472 15.19982,4.838 16.22345,4.90029 0.25467,0.0155 0.46321,-0.12065 0.46344,-0.30256 z m 8.59509,-5.94782 c 5.1515,-4.95123 6.17222,-6.04938 5.77618,-6.21432 -1.06667,-0.44423 -16.2879,-4.7291 -16.40024,-4.61677 -0.1784,0.1784 3.95449,16.84506 4.17712,16.84506 0.10434,0 3.00547,-2.70629 6.44694,-6.01397 z m -20.24046,-6.13797 c 3.2724,-3.19122 5.89178,-5.84914 5.82083,-5.90649 -0.17552,-0.14189 -16.77963,-4.89464 -16.86807,-4.82831 -0.0623,0.0467 3.76947,15.88483 4.05153,16.74659 0.18547,0.56667 0.72759,0.10081 6.99571,-6.01179 z m 26.99079,-1.97211 c 0,-0.12651 -3.94844,-16.2575 -4.14179,-16.92089 -0.1534,-0.52636 0.20633,-0.84773 -8.78308,7.84644 -2.37925,2.30111 -4.2794,4.23035 -4.22255,4.28719 0.14132,0.14132 16.40297,4.85329 16.81669,4.8728 0.1819,0.009 0.33073,-0.0299 0.33073,-0.0855 z m 8.49749,-6.55427 c 3.47915,-3.36943 6.258,-6.19397 6.17523,-6.27674 -0.20717,-0.20717 -16.89781,-5.02253 -17.01942,-4.91021 -0.0778,0.0718 3.67916,15.71761 4.07791,16.98246 0.0574,0.1819 0.17993,0.33073 0.27241,0.33073 0.0925,0 3.01473,-2.75681 6.49387,-6.12624 z m -29.54556,-2.80345 c -0.47975,-2.00091 -1.45281,-5.95396 -2.16234,-8.78455 l -1.29007,-5.14653 -6.56548,6.33715 -6.56548,6.33716 0.8902,0.25281 c 0.48961,0.13905 4.22395,1.22957 8.29853,2.42338 4.07458,1.19381 7.60152,2.18137 7.83763,2.19458 0.37301,0.0209 0.31494,-0.45291 -0.44299,-3.614 z m 9.23177,-3.32645 6.30767,-6.14483 -8.54082,-2.43494 c -4.69745,-1.33922 -8.56021,-2.40799 -8.58391,-2.37504 -0.11542,0.16044 4.17919,17.12379 4.33239,17.11259 0.0974,-0.007 3.01546,-2.77812 6.48467,-6.15778 z m -18.37989,-7.66835 c 2.38256,-2.29674 4.28756,-4.21591 4.23333,-4.26482 -0.21223,-0.19145 -17.00489,-4.8978 -17.10797,-4.79473 -0.0938,0.0938 3.6962,16.00445 4.06177,17.05168 0.0872,0.24992 0.8386,-0.31159 2.30518,-1.72273 1.19666,-1.15143 4.12512,-3.97265 6.50769,-6.2694 z m 43.35639,-2.89583 c -1.15975,-4.69304 -2.15157,-8.57953 -2.20405,-8.63664 -0.0525,-0.0571 -2.96778,2.67733 -6.47846,6.07654 -3.51067,3.3992 -6.27775,6.21547 -6.14906,6.25836 0.53899,0.17967 16.63403,4.79898 16.78026,4.81597 0.088,0.0102 -0.78895,-3.82118 -1.94869,-8.51423 z m 10.62217,1.97441 c 3.5043,-3.38884 6.22458,-6.21552 6.04506,-6.28152 -0.42924,-0.15779 -16.83007,-4.88716 -16.94804,-4.88716 -0.05,0 0.87147,3.92899 2.04767,8.73108 1.17621,4.80209 2.21625,8.70139 2.31121,8.6651 0.095,-0.0363 3.0398,-2.83866 6.5441,-6.2275 z m -30.93145,-7.82053 c -1.14055,-4.6342 -2.12274,-8.47482 -2.18264,-8.53473 -0.12161,-0.12161 -12.62875,11.80995 -12.62862,12.04745 7e-5,0.12993 16.7294,5.04534 16.84298,4.9488 0.0231,-0.0196 -0.89117,-3.82733 -2.03172,-8.46152 z m 10.40984,1.94352 c 3.41631,-3.27422 6.22335,-6.02301 6.23786,-6.10842 0.033,-0.19402 -16.69148,-5.04317 -16.8493,-4.88535 -0.1767,0.1767 4.01867,17.07977 4.22167,17.00902 0.0981,-0.0342 2.97345,-2.74103 6.38977,-6.01525 z m -30.6609,-7.93461 c -1.14035,-4.66331 -2.16087,-8.4469 -2.26783,-8.408 -0.22869,0.0832 -12.50262,11.85928 -12.5978,12.08683 -0.0727,0.17387 16.67556,5.04304 16.83624,4.89475 0.0565,-0.0522 -0.83025,-3.91028 -1.97061,-8.57358 z m 11.98791,0.51978 4.82839,-4.64517 -8.49582,-2.45135 c -4.67271,-1.34824 -8.52961,-2.41498 -8.5709,-2.37052 -0.0413,0.0445 0.87806,3.92619 2.04297,8.62608 l 2.11803,8.54526 1.62447,-1.52957 c 0.89345,-0.84126 3.79724,-3.61989 6.45286,-6.17473 z m -16.12637,-10.64905 c -1.66146,-0.61669 -16.40885,-4.72062 -16.52959,-4.59988 -0.11508,0.11508 3.60932,15.92005 4.02129,17.06482 0.0789,0.21928 2.60136,-2.04433 6.62202,-5.94249 5.97553,-5.79345 6.44594,-6.31472 5.88628,-6.52245 z m 127.64547,67.11427 c -0.60304,-0.26847 -0.89983,-1.11531 -0.59229,-1.68997 0.21524,-0.40218 0.55399,-0.52917 1.4116,-0.52917 0.62062,0 1.27128,-0.14288 1.4459,-0.3175 0.23313,-0.23313 0.3175,-2.47209 0.3175,-8.42566 0,-7.51903 0.0352,-8.13997 0.48386,-8.54604 0.26612,-0.24084 0.65903,-0.43788 0.87312,-0.43788 0.97823,0 1.02427,0.42446 1.02427,9.44145 v 8.80645 l -0.75441,0.84434 c -0.66334,0.7424 -0.94285,0.8539 -2.31511,0.92345 -0.85838,0.0435 -1.71088,0.0122 -1.89444,-0.0695 z m -67.71319,-6.31057 c -1.47759,-0.64264 -1.67076,-1.40703 -1.67076,-6.61106 v -4.64334 h -1.19063 c -1.71363,0 -1.56846,-0.56398 0.73383,-2.8509 2.30348,-2.28811 2.83805,-2.42391 2.83805,-0.72098 v 1.19063 h 1.4726 c 1.76126,0 2.49615,0.33769 2.49615,1.14701 0,0.95951 -0.51237,1.23424 -2.30188,1.23424 h -1.66687 v 4.33323 c 0,5.00757 0.0261,5.06827 2.09242,4.86972 1.55822,-0.14972 2.14091,0.12521 2.14091,1.01015 0,1.24291 -3.01849,1.87868 -4.94382,1.0413 z m 8.29672,0.0794 c -0.40057,-0.22417 -0.44248,-1.13311 -0.44248,-9.59479 0,-10.297 0.004,-10.32069 1.53716,-9.7822 l 0.71179,0.24996 0.0736,3.63202 c 0.0405,1.9976 0.11782,3.63201 0.17185,3.63201 0.054,0 0.69154,-0.39927 1.4167,-0.88726 2.80374,-1.88678 5.87931,-1.3424 7.39546,1.30901 0.5547,0.97004 0.59123,1.34542 0.59531,6.11738 0.004,4.87038 -0.0186,5.09621 -0.54255,5.37662 -0.42387,0.22684 -0.68796,0.20027 -1.17387,-0.11811 -0.6158,-0.40349 -0.62844,-0.49606 -0.70986,-5.20166 l -0.0829,-4.79086 -0.74235,-0.63798 c -1.0901,-0.93681 -2.87037,-0.88195 -4.4787,0.13802 -0.67299,0.42679 -1.35114,1.01428 -1.50701,1.30552 -0.16638,0.31088 -0.28339,2.21669 -0.28339,4.61557 0,3.42369 -0.0687,4.14302 -0.42357,4.43757 -0.54502,0.45233 -0.96435,0.50745 -1.5152,0.19918 z m 15.875,0 c -0.39462,-0.22084 -0.44248,-0.94172 -0.44248,-6.66386 0,-6.7374 0.053,-7.05122 1.19062,-7.05122 0.72593,0 1.19063,0.48534 1.19063,1.24354 0,0.78884 0.14531,0.76808 1.21837,-0.17408 1.08594,-0.95346 2.78725,-1.47453 3.5251,-1.07964 0.60083,0.32155 0.89412,1.07785 0.6573,1.69498 -0.16719,0.4357 -0.40831,0.52226 -2.3077,0.82844 -0.62483,0.10073 -1.40427,0.52052 -2.05052,1.10437 l -1.04255,0.94188 v 4.30244 c 0,3.62211 -0.067,4.35803 -0.42357,4.65397 -0.54502,0.45233 -0.96435,0.50745 -1.5152,0.19918 z m 13.04956,0.0759 c -3.05238,-0.99898 -4.48015,-3.12302 -4.4904,-6.68015 -0.0115,-3.98723 1.67264,-6.44316 4.87407,-7.10778 2.89331,-0.60065 5.74049,0.73986 6.91097,3.25382 0.69728,1.49762 0.87129,3.81887 0.32707,4.36309 -0.22307,0.22306 -1.71275,0.3175 -5.00862,0.3175 h -4.69111 l 0.2409,0.83997 c 0.34031,1.18659 1.49841,2.29415 2.75227,2.63217 1.26886,0.34206 3.57863,0.12087 4.67882,-0.44806 0.91395,-0.47262 1.72158,-0.29902 1.94949,0.41904 0.43747,1.37837 -1.49229,2.4078 -4.76363,2.54115 -1.16416,0.0475 -2.41509,-0.0114 -2.77983,-0.13075 z m 5.55697,-8.43321 c -0.002,-0.75145 -0.98688,-2.14764 -1.91482,-2.71341 -2.10098,-1.28098 -5.06046,0.004 -5.64156,2.44883 l -0.17292,0.7276 h 3.86515 c 3.50507,0 3.86504,-0.0431 3.86415,-0.46302 z m 9.25969,8.43321 c -3.05237,-0.99898 -4.48014,-3.12302 -4.49039,-6.68015 -0.0115,-3.98723 1.67264,-6.44316 4.87407,-7.10778 2.89331,-0.60065 5.74049,0.73986 6.91097,3.25382 0.69728,1.49762 0.87128,3.81887 0.32706,4.36309 -0.22306,0.22306 -1.71274,0.3175 -5.00861,0.3175 h -4.69111 l 0.2409,0.83997 c 0.34031,1.18659 1.49841,2.29415 2.75226,2.63217 1.26886,0.34206 3.57864,0.12087 4.67883,-0.44806 0.91394,-0.47262 1.72158,-0.29902 1.94948,0.41904 0.43748,1.37837 -1.49229,2.4078 -4.76362,2.54115 -1.16417,0.0475 -2.41509,-0.0114 -2.77984,-0.13075 z m 5.55697,-8.43321 c -0.002,-0.75145 -0.98688,-2.14764 -1.91482,-2.71341 -2.10097,-1.28098 -5.06046,0.004 -5.64155,2.44883 l -0.17292,0.7276 h 3.86514 c 3.50508,0 3.86505,-0.0431 3.86415,-0.46302 z m 21.43225,8.4948 c -2.80152,-0.9073 -3.4531,-1.46152 -2.91042,-2.47553 0.33377,-0.62365 1.05879,-0.66401 2.51354,-0.13992 2.15331,0.77575 4.90979,0.28478 5.29978,-0.94398 0.25575,-0.80579 -0.5058,-1.40839 -2.31856,-1.83463 -4.11782,-0.96823 -5.49476,-2.03541 -5.49476,-4.25866 0,-2.36468 1.20382,-3.72571 3.71692,-4.20231 1.59008,-0.30156 4.52915,0.0657 5.47735,0.68448 1.30404,0.85095 0.23566,2.39179 -1.34423,1.93869 -1.16942,-0.33539 -3.72687,-0.29852 -4.52522,0.0652 -0.75322,0.3432 -1.06028,1.02741 -0.81205,1.8095 0.11606,0.36569 0.6271,0.6548 1.67147,0.94562 4.42362,1.23178 5.40621,1.83262 5.88109,3.59618 0.77598,2.88178 -1.3671,4.99112 -5.03825,4.95893 -0.94588,-0.008 -1.89838,-0.0729 -2.11666,-0.1436 z m -15.55751,-0.41178 c -0.45286,-0.45287 -0.39257,-1.95088 0.0983,-2.44173 0.94165,-0.94165 2.75922,-0.1882 2.75922,1.14381 0,1.11862 -0.4748,1.61542 -1.54389,1.61542 -0.54786,0 -1.13898,-0.14288 -1.31361,-0.3175 z m 7.28928,-16.10786 c -0.53888,-0.31387 -0.63381,-1.81886 -0.14553,-2.30714 0.17463,-0.17463 0.62707,-0.3175 1.00542,-0.3175 0.9203,0 1.32292,0.45615 1.32292,1.49882 0,1.20891 -1.08202,1.76698 -2.18281,1.12582 z"
         id="path1084"
         inkscape:connector-curvature="0" />
    </g>
  </g>
</svg>
