<?xml version="1.0" encoding="UTF-8" standalone="no"?>
<!-- Created with Inkscape (http://www.inkscape.org/) -->

<svg
   xmlns:dc="http://purl.org/dc/elements/1.1/"
   xmlns:cc="http://creativecommons.org/ns#"
   xmlns:rdf="http://www.w3.org/1999/02/22-rdf-syntax-ns#"
   xmlns:svg="http://www.w3.org/2000/svg"
   xmlns="http://www.w3.org/2000/svg"
   xmlns:sodipodi="http://sodipodi.sourceforge.net/DTD/sodipodi-0.dtd"
   xmlns:inkscape="http://www.inkscape.org/namespaces/inkscape"
   width="169.06876mm"
   height="165.76448mm"
   viewBox="0 0 169.06876 165.76448"
   version="1.1"
   id="svg8"
   sodipodi:docname="github_circle.svg"
   inkscape:version="0.92.4 (5da689c313, 2019-01-14)">
  <defs
     id="defs2" />
  <sodipodi:namedview
     id="base"
     pagecolor="#f0f0ed"
     bordercolor="#666666"
     borderopacity="1.0"
     inkscape:pageopacity="0"
     inkscape:pageshadow="2"
     inkscape:zoom="0.7"
     inkscape:cx="405.60451"
     inkscape:cy="378.97263"
     inkscape:document-units="mm"
     inkscape:current-layer="layer1"
     showgrid="false"
     inkscape:window-width="1440"
     inkscape:window-height="847"
     inkscape:window-x="1358"
     inkscape:window-y="-8"
     inkscape:window-maximized="1" />
  <metadata
     id="metadata5">
    <rdf:RDF>
      <cc:Work
         rdf:about="">
        <dc:format>image/svg+xml</dc:format>
        <dc:type
           rdf:resource="http://purl.org/dc/dcmitype/StillImage" />
        <dc:title></dc:title>
      </cc:Work>
    </rdf:RDF>
  </metadata>
  <g
     inkscape:label="Layer 1"
     inkscape:groupmode="layer"
     id="layer1"
     transform="translate(131.09218,-45.261947)">
    <path
       style="fill:#000000;stroke-width:0.26458332"
       d=""
       id="path4001"
       inkscape:connector-curvature="0" />
    <path
       style="fill:#fefefe;stroke-width:0.26458332"
       d="m -74.603636,209.98639 c -12.719214,-4.54501 -23.256922,-11.29922 -32.703254,-20.96137 -3.54864,-3.62971 -5.41284,-5.81717 -8.09,-9.4928 -7.6407,-10.49041 -12.7759,-22.91572 -15.08772,-36.50673 -0.55737,-3.27674 -0.60757,-4.36983 -0.60757,-13.22917 0,-8.85933 0.0502,-9.95243 0.60757,-13.22917 2.31182,-13.591 7.44702,-26.016316 15.08772,-36.506722 2.67716,-3.675634 4.54136,-5.863096 8.09,-9.492807 13.040734,-13.338665 28.75552,-21.506301 47.519921,-24.698103 3.27674,-0.557369 4.369831,-0.607571 13.229166,-0.607571 8.859335,0 9.952426,0.0502 13.229166,0.607571 18.764401,3.191802 34.4791878,11.359438 47.519918,24.698103 3.548636,3.629711 5.412845,5.817173 8.089997,9.492807 7.640698,10.490406 12.775906,22.915722 15.087722,36.506722 0.557368,3.27674 0.60757,4.36984 0.60757,13.22917 0,8.85934 -0.0502,9.95243 -0.60757,13.22917 -2.311816,13.59101 -7.447024,26.01632 -15.087722,36.50673 -6.741152,9.25535 -15.6345271,17.39724 -25.3208963,23.18128 -6.1833151,3.69225 -15.1652527,7.61949 -17.2656657,7.5492 -0.791017,-0.0265 -1.177997,0.0824 -1.285079,0.36141 -0.322323,0.83997 -2.281184,0.29152 -3.45712,-0.96792 -0.320315,-0.34307 -0.829318,-1.18197 -1.13112,-1.86425 -0.532521,-1.20385 -0.548127,-1.634 -0.528299,-14.56143 0.01304,-8.49972 -0.07763,-13.57887 -0.25052,-14.0336 -0.149024,-0.39196 -0.205825,-0.88238 -0.12622,-1.08983 0.416793,-1.08614 -1.70253,-6.24139 -3.022409,-7.35199 -2.311025,-1.9446 -1.431841,-3.96493 1.787575,-4.10779 2.17035,-0.0963 3.244712,-0.2395 3.985673,-0.53123 0.363802,-0.14324 0.80319,-0.21044 0.976415,-0.14934 0.173226,0.0611 0.768538,-0.0237 1.322917,-0.18834 0.923946,-0.27448 3.217545,-0.85511 4.844417,-1.22637 1.082956,-0.24714 7.4260055,-3.39778 8.995834,-4.46829 1.8367401,-1.25253 3.4663379,-2.7483 6.4777274,-5.94574 1.03119766,-1.09491 3.3546177,-4.6176 3.7680847,-5.71303 0.1596945,-0.4231 0.7161318,-1.84082 1.2365302,-3.15051 1.1054423,-2.78207 1.6903435,-5.21445 1.8450718,-7.67292 0.036634,-0.58208 0.1672273,-1.35599 0.2902056,-1.71979 0.328758,-0.97255 0.5077407,-10.39496 0.2588313,-13.62604 -0.2043245,-2.65232 -1.0332482,-6.06508 -1.8160471,-7.47686 -0.2211678,-0.39887 -0.5808847,-1.1777 -0.7993697,-1.73073 -0.4141735,-1.04836 -2.65657804,-4.48416 -4.265205,-6.53512 -1.0117428,-1.28995 -1.0453608,-1.74115 -0.3844211,-5.15938 0.3509619,-1.815092 0.3734488,-10.405581 0.029602,-11.308638 -0.1518893,-0.398918 -0.2110369,-0.89503 -0.1314317,-1.102474 0.1609963,-0.419553 -0.577469,-3.337835 -1.121582,-4.432295 -0.3134809,-0.63055 -0.5226446,-0.714034 -2.0090579,-0.80188 -0.9125294,-0.05393 -2.016334,0.03897 -2.4528965,0.206435 -0.4365625,0.167471 -0.9443667,0.249907 -1.1284558,0.183193 -0.376129,-0.136306 -2.6953692,0.506407 -4.6923782,1.300363 -1.931998,0.768109 -8.459409,4.188907 -10.425917,5.463871 -1.756211,1.138624 -2.967709,1.383323 -4.031104,0.814213 -0.292383,-0.15648 -1.127688,-0.334039 -1.856235,-0.394579 -0.728546,-0.06054 -1.456581,-0.191619 -1.617855,-0.291293 -0.308314,-0.190547 -1.300631,-0.31374 -3.503142,-0.434903 -0.729255,-0.04012 -1.491276,-0.175136 -1.693375,-0.30004 -0.46776,-0.289092 -2.034675,-0.340712 -10.342163,-0.340712 -8.307488,0 -9.874403,0.05162 -10.342163,0.340712 -0.202099,0.124904 -0.96412,0.259924 -1.693375,0.30004 -2.202511,0.121163 -3.194828,0.244356 -3.503142,0.434903 -0.161274,0.09967 -0.889309,0.230757 -1.617855,0.291293 -0.728547,0.06054 -1.563852,0.238099 -1.856235,0.394579 -1.063395,0.56911 -2.274893,0.324411 -4.031104,-0.814213 -1.966508,-1.274964 -8.493919,-4.695762 -10.425917,-5.463871 -1.997009,-0.793956 -4.316248,-1.436669 -4.692377,-1.300363 -0.18409,0.06671 -0.691894,-0.01572 -1.128456,-0.183193 -0.436563,-0.167468 -1.540367,-0.260363 -2.452897,-0.206435 -1.486413,0.08785 -1.695577,0.17133 -2.009058,0.80188 -0.544113,1.09446 -1.282578,4.012742 -1.121582,4.432295 0.07961,0.207444 0.02045,0.703556 -0.131431,1.102474 -0.343848,0.903057 -0.321361,9.493546 0.0296,11.308638 0.66094,3.41823 0.627322,3.86943 -0.384421,5.15938 -1.608627,2.05096 -3.851031,5.48676 -4.265205,6.53512 -0.218485,0.55303 -0.578202,1.33186 -0.79937,1.73073 -0.783576,1.41318 -1.61314,4.83041 -1.815078,7.47686 -0.248992,3.2631 -0.07557,12.90169 0.249923,13.89062 0.119739,0.3638 0.251184,1.07818 0.292097,1.5875 0.178782,2.22558 0.764524,4.78331 1.540862,6.7284 0.352544,0.88329 0.894564,2.2855 1.204489,3.11602 0.616058,1.65088 2.766139,5.1048 4.07316,6.54317 2.066549,2.27423 4.246731,4.31607 6.118076,5.72985 1.462699,1.10506 8.497343,4.60004 9.28869,4.61486 0.275492,0.005 0.79855,0.17953 1.162352,0.38749 0.363802,0.20797 0.996706,0.38235 1.406456,0.3875 0.40975,0.005 0.959861,0.12437 1.222468,0.26491 0.438875,0.23488 2.210511,0.61221 4.514826,0.96158 0.509323,0.0772 1.512649,0.13219 2.229614,0.12216 1.412881,-0.0198 3.435186,0.7829 3.697997,1.46777 0.18338,0.47789 -0.338532,1.52224 -1.307801,2.61692 -1.325512,1.49701 -3.03231,5.69874 -3.03231,7.46481 0,1.38213 -2.458755,2.91436 -5.688542,3.54495 -0.727604,0.14206 -1.771811,0.43165 -2.320459,0.64354 -2.345714,0.90589 -5.624237,0.30503 -10.114957,-1.8538 -2.982161,-1.43362 -4.857009,-3.11107 -6.862215,-6.13972 -0.850958,-1.28527 -2.69117,-3.50516 -4.089365,-4.93307 -3.454977,-3.5284 -5.363972,-4.42777 -9.421342,-4.43857 -1.01864,-0.003 -1.94138,0.001 -2.05052,0.009 -0.10914,0.008 -0.19843,0.26999 -0.19843,0.58271 0,0.64395 1.43684,2.14047 3.03063,3.15651 2.73664,1.7446 6.21416,6.26934 8.219477,10.6947 0.527534,1.16416 1.154461,2.51589 1.393169,3.00384 0.42079,0.86014 3.000949,3.63947 4.774377,5.14292 1.376553,1.167 4.44655,2.45695 6.791719,2.85375 1.842809,0.3118 11.236642,0.33485 12.040015,0.0295 0.583642,-0.2218 3.022269,-0.0436 3.274705,0.23932 0.05286,0.0592 0.289843,0.48875 0.52663,0.95447 0.36635,0.72053 0.429659,1.90372 0.424714,7.9375 -0.0054,6.56462 -0.04586,7.17908 -0.545589,8.28136 -0.940038,2.07351 -2.36193,3.1944 -3.999524,3.15286 -0.480168,-0.0122 -2.123191,-0.46887 -3.65116,-1.01487 z"
       id="path4016"
       inkscape:connector-curvature="0" />
  </g>
</svg>
